<?xml version="1.0" encoding="utf-8"?>
<!-- Generator: Adobe Illustrator 17.0.0, SVG Export Plug-In . SVG Version: 6.00 Build 0)  -->
<!DOCTYPE svg PUBLIC "-//W3C//DTD SVG 1.1//EN" "http://www.w3.org/Graphics/SVG/1.1/DTD/svg11.dtd">
<svg version="1.1" id="Layer_1" xmlns="http://www.w3.org/2000/svg" xmlns:xlink="http://www.w3.org/1999/xlink" x="0px" y="0px"
	 width="322.484px" height="146.993px" viewBox="0 0 322.484 146.993" enable-background="new 0 0 322.484 146.993"
	 xml:space="preserve">
<g>
	<g>
		<path fill="#FFFFFF" d="M140.546,41.38c-0.56-1.077-1.337-1.89-2.33-2.439c-0.995-0.549-2.144-0.823-3.45-0.823
			c-1.428,0-2.702,0.321-3.82,0.963c-1.119,0.643-1.994,1.554-2.625,2.734c-0.633,1.181-0.948,2.547-0.948,4.101
			c0,1.553,0.316,2.925,0.948,4.116c0.631,1.191,1.507,2.108,2.625,2.749c1.119,0.643,2.392,0.963,3.82,0.963
			c1.926,0,3.491-0.538,4.692-1.615c1.2-1.077,1.936-2.537,2.206-4.381h-8.109v-2.827h11.899v2.765
			c-0.228,1.678-0.824,3.221-1.786,4.629c-0.963,1.409-2.217,2.532-3.76,3.371c-1.543,0.839-3.257,1.258-5.142,1.258
			c-2.029,0-3.883-0.471-5.56-1.414c-1.678-0.943-3.009-2.253-3.992-3.931c-0.985-1.677-1.477-3.572-1.477-5.685
			c0-2.113,0.492-4.008,1.477-5.685c0.983-1.678,2.319-2.987,4.007-3.93c1.688-0.943,3.536-1.414,5.545-1.414
			c2.3,0,4.345,0.564,6.136,1.693c1.791,1.129,3.091,2.729,3.899,4.8H140.546z"/>
		<path fill="#FFFFFF" d="M154.852,55.562c-1.688-0.942-3.024-2.257-4.007-3.946c-0.985-1.688-1.477-3.588-1.477-5.7
			c0-2.113,0.492-4.008,1.477-5.685c0.983-1.678,2.319-2.987,4.007-3.93c1.688-0.943,3.536-1.414,5.545-1.414
			c2.03,0,3.889,0.471,5.578,1.414c1.687,0.943,3.017,2.252,3.992,3.93c0.973,1.677,1.459,3.572,1.459,5.685
			c0,2.112-0.486,4.013-1.459,5.7c-0.974,1.688-2.305,3.004-3.992,3.946c-1.688,0.943-3.547,1.414-5.578,1.414
			C158.388,56.976,156.54,56.505,154.852,55.562z M164.218,52.922c1.119-0.653,1.993-1.585,2.625-2.796
			c0.631-1.211,0.948-2.614,0.948-4.209s-0.317-2.993-0.948-4.194c-0.633-1.201-1.507-2.123-2.625-2.765
			c-1.119-0.642-2.392-0.963-3.822-0.963c-1.428,0-2.702,0.321-3.82,0.963c-1.119,0.642-1.994,1.564-2.625,2.765
			c-0.633,1.201-0.948,2.599-0.948,4.194s0.316,2.998,0.948,4.209c0.631,1.212,1.507,2.144,2.625,2.796
			c1.119,0.652,2.392,0.978,3.82,0.978C161.826,53.9,163.1,53.574,164.218,52.922z"/>
		<path fill="#FFFFFF" d="M189.414,56.215c-1.16-0.507-2.071-1.228-2.733-2.159c-0.664-0.932-0.995-2.019-0.995-3.262h3.79
			c0.083,0.932,0.45,1.698,1.102,2.299s1.569,0.901,2.749,0.901c1.223,0,2.176-0.295,2.858-0.886
			c0.684-0.59,1.026-1.352,1.026-2.283c0-0.725-0.213-1.315-0.638-1.771c-0.425-0.455-0.953-0.808-1.585-1.057
			c-0.631-0.249-1.507-0.517-2.625-0.808c-1.408-0.373-2.553-0.75-3.432-1.134c-0.881-0.383-1.631-0.979-2.252-1.787
			c-0.623-0.807-0.933-1.884-0.933-3.231c0-1.243,0.311-2.33,0.933-3.262c0.621-0.932,1.491-1.647,2.609-2.144
			s2.412-0.745,3.883-0.745c2.092,0,3.807,0.523,5.142,1.569c1.336,1.046,2.077,2.48,2.222,4.303h-3.916
			c-0.061-0.787-0.435-1.46-1.117-2.019c-0.684-0.559-1.585-0.839-2.703-0.839c-1.016,0-1.844,0.259-2.486,0.777
			c-0.641,0.518-0.962,1.264-0.962,2.237c0,0.663,0.202,1.207,0.605,1.631c0.405,0.425,0.917,0.762,1.538,1.01
			c0.621,0.248,1.471,0.518,2.548,0.807c1.429,0.394,2.594,0.788,3.495,1.181c0.901,0.394,1.667,1,2.3,1.817
			c0.631,0.819,0.947,1.911,0.947,3.278c0,1.098-0.296,2.133-0.886,3.106c-0.59,0.974-1.449,1.755-2.579,2.345
			c-1.129,0.591-2.459,0.886-3.992,0.886C191.879,56.976,190.574,56.723,189.414,56.215z"/>
		<path fill="#FFFFFF" d="M210.897,55.562c-1.688-0.942-3.024-2.257-4.007-3.946c-0.985-1.688-1.477-3.588-1.477-5.7
			c0-2.113,0.492-4.008,1.477-5.685c0.983-1.678,2.318-2.987,4.007-3.93c1.688-0.943,3.536-1.414,5.545-1.414
			c2.03,0,3.889,0.471,5.578,1.414c1.687,0.943,3.017,2.252,3.992,3.93c0.973,1.677,1.459,3.572,1.459,5.685
			c0,2.112-0.486,4.013-1.459,5.7c-0.975,1.688-2.305,3.004-3.992,3.946c-1.688,0.943-3.547,1.414-5.578,1.414
			C214.433,56.976,212.585,56.505,210.897,55.562z M220.263,52.922c1.119-0.653,1.993-1.585,2.625-2.796
			c0.631-1.211,0.948-2.614,0.948-4.209s-0.317-2.993-0.948-4.194c-0.633-1.201-1.507-2.123-2.625-2.765
			c-1.119-0.642-2.392-0.963-3.822-0.963c-1.428,0-2.702,0.321-3.82,0.963c-1.119,0.642-1.994,1.564-2.625,2.765
			c-0.633,1.201-0.948,2.599-0.948,4.194s0.316,2.998,0.948,4.209c0.631,1.212,1.507,2.144,2.625,2.796
			c1.119,0.652,2.392,0.978,3.82,0.978C217.871,53.9,219.145,53.574,220.263,52.922z"/>
		<path fill="#FFFFFF" d="M232.862,40.231c0.983-1.678,2.319-2.987,4.007-3.93c1.688-0.943,3.536-1.414,5.545-1.414
			c2.3,0,4.345,0.564,6.136,1.693c1.791,1.129,3.091,2.729,3.899,4.8h-4.256c-0.56-1.139-1.336-1.988-2.33-2.548
			c-0.995-0.559-2.144-0.839-3.45-0.839c-1.428,0-2.702,0.321-3.82,0.963c-1.119,0.642-1.994,1.564-2.625,2.765
			c-0.633,1.201-0.948,2.599-0.948,4.194s0.316,2.993,0.948,4.194c0.631,1.202,1.507,2.128,2.625,2.781s2.392,0.979,3.82,0.979
			c1.305,0,2.455-0.28,3.45-0.839c0.993-0.559,1.77-1.408,2.33-2.547h4.256c-0.808,2.071-2.108,3.666-3.899,4.784
			c-1.791,1.119-3.837,1.678-6.136,1.678c-2.029,0-3.883-0.471-5.56-1.414c-1.678-0.943-3.009-2.253-3.992-3.931
			c-0.985-1.677-1.477-3.572-1.477-5.685C231.385,43.803,231.877,41.908,232.862,40.231z"/>
		<path fill="#FFFFFF" d="M261.739,35.167v21.592h-3.542V35.167H261.739z"/>
		<path fill="#FFFFFF" d="M272.316,55.562c-1.688-0.942-3.024-2.257-4.007-3.946c-0.984-1.688-1.477-3.588-1.477-5.7
			c0-2.113,0.492-4.008,1.477-5.685c0.983-1.678,2.319-2.987,4.007-3.93c1.688-0.943,3.536-1.414,5.545-1.414
			c2.03,0,3.889,0.471,5.578,1.414c1.687,0.943,3.017,2.252,3.992,3.93c0.973,1.677,1.459,3.572,1.459,5.685
			c0,2.112-0.486,4.013-1.459,5.7c-0.975,1.688-2.305,3.004-3.992,3.946c-1.688,0.943-3.547,1.414-5.578,1.414
			C275.853,56.976,274.005,56.505,272.316,55.562z M281.683,52.922c1.119-0.653,1.993-1.585,2.625-2.796
			c0.631-1.211,0.948-2.614,0.948-4.209s-0.317-2.993-0.948-4.194c-0.633-1.201-1.507-2.123-2.625-2.765
			c-1.119-0.642-2.392-0.963-3.822-0.963c-1.428,0-2.702,0.321-3.82,0.963c-1.119,0.642-1.994,1.564-2.625,2.765
			c-0.633,1.201-0.948,2.599-0.948,4.194s0.316,2.998,0.948,4.209c0.631,1.212,1.507,2.144,2.625,2.796
			c1.119,0.652,2.392,0.978,3.82,0.978C279.291,53.9,280.565,53.574,281.683,52.922z"/>
		<path fill="#FFFFFF" d="M139.427,78.13c0.808,1.015,1.211,2.165,1.211,3.449c0,1.098-0.284,2.087-0.854,2.967
			c-0.57,0.881-1.393,1.574-2.47,2.082s-2.33,0.761-3.759,0.761h-8.636V65.797h8.233c1.471,0,2.733,0.249,3.79,0.746
			c1.056,0.497,1.853,1.165,2.391,2.003c0.539,0.839,0.808,1.776,0.808,2.811c0,1.243-0.331,2.279-0.993,3.107
			c-0.664,0.829-1.553,1.44-2.672,1.833C137.635,76.505,138.62,77.116,139.427,78.13z M128.46,74.868h4.381
			c1.16,0,2.065-0.264,2.718-0.792s0.978-1.29,0.978-2.283c0-0.973-0.326-1.734-0.978-2.283c-0.653-0.549-1.558-0.824-2.718-0.824
			h-4.381V74.868z M136.072,83.629c0.684-0.58,1.026-1.388,1.026-2.424c0-1.056-0.363-1.895-1.087-2.516
			c-0.725-0.621-1.688-0.932-2.89-0.932h-4.661v6.742h4.785C134.446,84.499,135.389,84.209,136.072,83.629z"/>
		<path fill="#FFFFFF" d="M149.617,65.797v13.763c0,1.636,0.43,2.869,1.29,3.697c0.858,0.829,2.054,1.243,3.587,1.243
			c1.553,0,2.759-0.414,3.62-1.243c0.859-0.828,1.289-2.06,1.289-3.697V65.797h3.542v13.701c0,1.76-0.385,3.252-1.15,4.474
			c-0.767,1.223-1.792,2.134-3.076,2.734c-1.284,0.601-2.702,0.901-4.256,0.901c-1.553,0-2.966-0.3-4.24-0.901
			s-2.283-1.512-3.029-2.734c-0.747-1.222-1.119-2.713-1.119-4.474V65.797H149.617z"/>
		<path fill="#FFFFFF" d="M183.107,65.797v2.889h-5.748v18.703h-3.541V68.686h-5.778v-2.889H183.107z"/>
		<path fill="#FFFFFF" d="M202.244,65.797v2.889h-5.747v18.703h-3.542V68.686h-5.778v-2.889H202.244z"/>
		<path fill="#FFFFFF" d="M210.974,68.655v6.337h7.457v2.89h-7.457v6.617h8.388v2.889h-11.931V65.765h11.931v2.89H210.974z"/>
		<path fill="#FFFFFF" d="M236.542,87.388l-4.97-8.636h-2.703v8.636h-3.542V65.797h7.457c1.657,0,3.06,0.291,4.21,0.87
			c1.15,0.58,2.009,1.357,2.579,2.33c0.569,0.974,0.854,2.061,0.854,3.262c0,1.409-0.41,2.687-1.228,3.837
			c-0.818,1.15-2.077,1.931-3.775,2.346l5.343,8.947H236.542z M228.869,75.924h3.914c1.325,0,2.325-0.331,2.999-0.994
			c0.673-0.663,1.01-1.553,1.01-2.672s-0.332-1.993-0.995-2.625c-0.663-0.631-1.667-0.948-3.014-0.948h-3.914V75.924z"/>
		<path fill="#FFFFFF" d="M259.283,65.797v2.889h-9.165v6.369h7.146v2.889h-7.146v9.444h-3.542V65.797H259.283z"/>
		<path fill="#FFFFFF" d="M267.733,84.53h7.301v2.858h-10.842V65.797h3.541V84.53z"/>
		<path fill="#FFFFFF" d="M295.601,65.797l-7.146,13.763v7.829h-3.541v-7.829l-7.177-13.763h3.946l5.003,10.594l5.001-10.594
			H295.601z"/>
	</g>
	<g>
		<path fill="#FFFFFF" d="M130.802,103.373c0.405,0.483,0.606,1.045,0.606,1.687c0,0.522-0.13,0.993-0.392,1.412
			c-0.261,0.419-0.643,0.75-1.146,0.991c-0.502,0.242-1.105,0.363-1.804,0.363h-3.58V97.486h3.476c1.045,0,1.841,0.242,2.389,0.725
			c0.547,0.483,0.82,1.109,0.82,1.878c0,0.641-0.172,1.161-0.517,1.561c-0.346,0.4-0.789,0.678-1.331,0.835
			C129.905,102.594,130.398,102.89,130.802,103.373z M125.523,102.056h2.41c0.7,0,1.24-0.165,1.62-0.495
			c0.38-0.33,0.57-0.786,0.57-1.368c0-0.572-0.19-1.021-0.57-1.346c-0.38-0.326-0.934-0.489-1.663-0.489h-2.366V102.056z
			 M129.745,106.419c0.418-0.354,0.629-0.843,0.629-1.464s-0.22-1.117-0.659-1.486c-0.438-0.37-1.027-0.555-1.767-0.555h-2.425
			v4.038h2.47C128.742,106.952,129.325,106.774,129.745,106.419z"/>
		<path fill="#FFFFFF" d="M136.165,100.015c0.467-0.276,1.042-0.414,1.722-0.414v1.08h-0.281c-0.75,0-1.352,0.202-1.805,0.606
			c-0.453,0.405-0.68,1.08-0.68,2.027v4.511h-1.036v-8.076h1.036v1.435C135.348,100.681,135.696,100.291,136.165,100.015z"/>
		<path fill="#FFFFFF" d="M140.232,101.591c0.329-0.626,0.788-1.11,1.375-1.45c0.586-0.34,1.25-0.51,1.989-0.51
			c0.769,0,1.432,0.178,1.989,0.532c0.557,0.355,0.959,0.809,1.206,1.361v-1.775h1.035v8.076h-1.035v-1.79
			c-0.257,0.552-0.664,1.008-1.221,1.368c-0.556,0.36-1.22,0.54-1.989,0.54c-0.729,0-1.388-0.172-1.974-0.518
			c-0.587-0.345-1.046-0.833-1.375-1.464c-0.331-0.631-0.496-1.36-0.496-2.189S139.901,102.217,140.232,101.591z M146.392,102.071
			c-0.267-0.493-0.629-0.872-1.087-1.139c-0.458-0.267-0.964-0.4-1.516-0.4c-0.572,0-1.086,0.128-1.539,0.385
			c-0.453,0.257-0.81,0.629-1.072,1.117c-0.261,0.488-0.392,1.067-0.392,1.738c0,0.661,0.132,1.24,0.392,1.738
			c0.262,0.498,0.619,0.877,1.072,1.139c0.453,0.262,0.967,0.392,1.539,0.392c0.551,0,1.057-0.133,1.516-0.399
			c0.458-0.266,0.82-0.646,1.087-1.139c0.266-0.493,0.4-1.065,0.4-1.715C146.791,103.136,146.657,102.565,146.392,102.071z"/>
		<path fill="#FFFFFF" d="M157.115,100.496c0.611,0.597,0.917,1.462,0.917,2.596v4.733h-1.021v-4.614
			c0-0.878-0.219-1.548-0.658-2.012c-0.44-0.463-1.038-0.695-1.797-0.695c-0.779,0-1.4,0.246-1.864,0.74
			c-0.463,0.493-0.695,1.217-0.695,2.174v4.408h-1.036v-8.076h1.036v1.376c0.257-0.494,0.626-0.871,1.11-1.132
			c0.482-0.261,1.03-0.392,1.641-0.392C155.715,99.601,156.504,99.899,157.115,100.496z"/>
		<path fill="#FFFFFF" d="M161.123,101.591c0.336-0.626,0.797-1.11,1.383-1.45c0.586-0.34,1.25-0.51,1.989-0.51
			c0.71,0,1.352,0.173,1.923,0.518c0.572,0.345,0.992,0.794,1.258,1.346V96.88h1.036v10.945h-1.036v-1.804
			c-0.247,0.562-0.65,1.023-1.212,1.383s-1.223,0.54-1.982,0.54c-0.74,0-1.403-0.172-1.99-0.518
			c-0.586-0.345-1.045-0.833-1.375-1.464c-0.331-0.631-0.495-1.36-0.495-2.189S160.788,102.217,161.123,101.591z M167.276,102.071
			c-0.266-0.493-0.629-0.872-1.087-1.139c-0.458-0.267-0.963-0.4-1.516-0.4c-0.572,0-1.085,0.128-1.538,0.385
			c-0.453,0.257-0.812,0.629-1.072,1.117c-0.262,0.488-0.392,1.067-0.392,1.738c0,0.661,0.13,1.24,0.392,1.738
			c0.261,0.498,0.619,0.877,1.072,1.139c0.453,0.262,0.966,0.392,1.538,0.392c0.552,0,1.057-0.133,1.516-0.399
			c0.458-0.266,0.822-0.646,1.087-1.139c0.267-0.493,0.4-1.065,0.4-1.715C167.675,103.136,167.543,102.565,167.276,102.071z"/>
		<path fill="#FFFFFF" d="M171.831,98.003c-0.148-0.148-0.222-0.33-0.222-0.547c0-0.217,0.074-0.397,0.222-0.54
			c0.148-0.143,0.326-0.215,0.532-0.215c0.208,0,0.385,0.072,0.532,0.215c0.148,0.143,0.222,0.323,0.222,0.54
			c0,0.217-0.074,0.399-0.222,0.547c-0.148,0.148-0.324,0.222-0.532,0.222C172.157,98.226,171.979,98.152,171.831,98.003z
			 M172.882,99.749v8.076h-1.036v-8.076H172.882z"/>
		<path fill="#FFFFFF" d="M182.155,100.496c0.611,0.597,0.917,1.462,0.917,2.596v4.733h-1.02v-4.614c0-0.878-0.22-1.548-0.659-2.012
			c-0.438-0.463-1.038-0.695-1.797-0.695c-0.779,0-1.4,0.246-1.863,0.74c-0.465,0.493-0.695,1.217-0.695,2.174v4.408h-1.036v-8.076
			h1.036v1.376c0.256-0.494,0.625-0.871,1.109-1.132c0.483-0.261,1.031-0.392,1.642-0.392
			C180.755,99.601,181.544,99.899,182.155,100.496z"/>
		<path fill="#FFFFFF" d="M191.503,100.163c0.562,0.355,0.966,0.804,1.212,1.347v-1.76h1.036v8.283c0,0.739-0.16,1.395-0.481,1.967
			c-0.321,0.572-0.767,1.013-1.339,1.323c-0.571,0.311-1.223,0.466-1.952,0.466c-1.036,0-1.896-0.246-2.582-0.74
			c-0.685-0.493-1.112-1.164-1.279-2.011h1.02c0.178,0.562,0.516,1.01,1.013,1.346c0.499,0.335,1.107,0.503,1.827,0.503
			c0.522,0,0.991-0.111,1.404-0.333c0.415-0.222,0.74-0.55,0.977-0.983c0.237-0.434,0.354-0.947,0.354-1.538v-1.997
			c-0.257,0.552-0.663,1.008-1.22,1.368c-0.557,0.36-1.215,0.54-1.974,0.54c-0.74,0-1.403-0.172-1.99-0.518
			c-0.586-0.345-1.045-0.833-1.375-1.464c-0.331-0.631-0.495-1.36-0.495-2.189s0.164-1.555,0.495-2.181
			c0.331-0.626,0.789-1.11,1.375-1.45c0.587-0.34,1.25-0.51,1.99-0.51C190.281,99.63,190.941,99.808,191.503,100.163z
			 M192.316,102.071c-0.266-0.493-0.629-0.872-1.087-1.139c-0.458-0.267-0.963-0.4-1.516-0.4c-0.572,0-1.085,0.128-1.538,0.385
			c-0.453,0.257-0.812,0.629-1.072,1.117c-0.262,0.488-0.392,1.067-0.392,1.738c0,0.661,0.13,1.24,0.392,1.738
			c0.261,0.498,0.619,0.877,1.072,1.139c0.453,0.262,0.966,0.392,1.538,0.392c0.552,0,1.057-0.133,1.516-0.399
			c0.458-0.266,0.822-0.646,1.087-1.139c0.267-0.493,0.4-1.065,0.4-1.715C192.716,103.136,192.583,102.565,192.316,102.071z"/>
		<path fill="#FFFFFF" d="M201.73,101.591c0.331-0.626,0.789-1.11,1.375-1.45c0.587-0.34,1.25-0.51,1.99-0.51
			c0.769,0,1.432,0.178,1.989,0.532c0.556,0.355,0.958,0.809,1.205,1.361v-1.775h1.036v8.076h-1.036v-1.79
			c-0.257,0.552-0.663,1.008-1.22,1.368c-0.557,0.36-1.22,0.54-1.989,0.54c-0.73,0-1.388-0.172-1.975-0.518
			c-0.586-0.345-1.045-0.833-1.375-1.464c-0.331-0.631-0.495-1.36-0.495-2.189S201.4,102.217,201.73,101.591z M207.89,102.071
			c-0.266-0.493-0.629-0.872-1.087-1.139c-0.458-0.267-0.963-0.4-1.516-0.4c-0.572,0-1.085,0.128-1.538,0.385
			c-0.453,0.257-0.812,0.629-1.072,1.117c-0.262,0.488-0.392,1.067-0.392,1.738c0,0.661,0.13,1.24,0.392,1.738
			c0.261,0.498,0.619,0.877,1.072,1.139c0.453,0.262,0.966,0.392,1.538,0.392c0.552,0,1.057-0.133,1.516-0.399
			c0.458-0.266,0.822-0.646,1.087-1.139c0.267-0.493,0.4-1.065,0.4-1.715C208.29,103.136,208.157,102.565,207.89,102.071z"/>
		<path fill="#FFFFFF" d="M218.615,100.496c0.611,0.597,0.917,1.462,0.917,2.596v4.733h-1.021v-4.614
			c0-0.878-0.219-1.548-0.658-2.012c-0.44-0.463-1.038-0.695-1.797-0.695c-0.779,0-1.4,0.246-1.864,0.74
			c-0.463,0.493-0.695,1.217-0.695,2.174v4.408h-1.036v-8.076h1.036v1.376c0.257-0.494,0.626-0.871,1.11-1.132
			c0.482-0.261,1.03-0.392,1.641-0.392C217.215,99.601,218.004,99.899,218.615,100.496z"/>
		<path fill="#FFFFFF" d="M222.623,101.591c0.334-0.626,0.795-1.11,1.383-1.45c0.586-0.34,1.249-0.51,1.989-0.51
			c0.71,0,1.35,0.173,1.923,0.518c0.571,0.345,0.991,0.794,1.258,1.346V96.88h1.035v10.945h-1.035v-1.804
			c-0.247,0.562-0.651,1.023-1.214,1.383c-0.561,0.36-1.223,0.54-1.982,0.54c-0.739,0-1.403-0.172-1.989-0.518
			c-0.587-0.345-1.046-0.833-1.375-1.464c-0.331-0.631-0.496-1.36-0.496-2.189S222.288,102.217,222.623,101.591z M228.776,102.071
			c-0.267-0.493-0.629-0.872-1.087-1.139c-0.458-0.267-0.964-0.4-1.516-0.4c-0.572,0-1.086,0.128-1.539,0.385
			c-0.453,0.257-0.81,0.629-1.072,1.117c-0.261,0.488-0.392,1.067-0.392,1.738c0,0.661,0.132,1.24,0.392,1.738
			c0.262,0.498,0.619,0.877,1.072,1.139c0.453,0.262,0.967,0.392,1.539,0.392c0.551,0,1.057-0.133,1.516-0.399
			c0.458-0.266,0.82-0.646,1.087-1.139c0.266-0.493,0.4-1.065,0.4-1.715C229.175,103.136,229.041,102.565,228.776,102.071z"/>
		<path fill="#FFFFFF" d="M240.424,100.163c0.556-0.354,1.215-0.532,1.974-0.532c0.74,0,1.4,0.17,1.982,0.51
			c0.582,0.34,1.038,0.824,1.369,1.45c0.329,0.626,0.495,1.353,0.495,2.181s-0.165,1.558-0.495,2.189
			c-0.331,0.631-0.789,1.119-1.375,1.464c-0.587,0.346-1.245,0.518-1.975,0.518c-0.769,0-1.432-0.175-1.989-0.525
			c-0.557-0.35-0.964-0.807-1.22-1.368v1.775h-1.021V96.88h1.021v4.659C239.454,100.976,239.866,100.518,240.424,100.163z
			 M244.801,102.034c-0.262-0.488-0.619-0.86-1.072-1.117c-0.453-0.256-0.967-0.385-1.538-0.385c-0.552,0-1.057,0.133-1.517,0.4
			c-0.458,0.266-0.82,0.646-1.086,1.139c-0.267,0.494-0.4,1.065-0.4,1.716c0,0.651,0.133,1.223,0.4,1.715
			c0.266,0.494,0.628,0.873,1.086,1.139c0.46,0.266,0.964,0.399,1.517,0.399c0.571,0,1.085-0.13,1.538-0.392
			c0.453-0.261,0.81-0.641,1.072-1.139c0.261-0.498,0.392-1.077,0.392-1.738C245.193,103.101,245.062,102.522,244.801,102.034z"/>
		<path fill="#FFFFFF" d="M256.197,104.186h-6.7c0.03,0.612,0.178,1.134,0.443,1.568c0.267,0.434,0.616,0.762,1.051,0.983
			c0.433,0.222,0.907,0.333,1.419,0.333c0.67,0,1.235-0.163,1.693-0.489c0.458-0.325,0.762-0.764,0.909-1.316h1.095
			c-0.197,0.789-0.619,1.432-1.264,1.93c-0.646,0.499-1.457,0.747-2.434,0.747c-0.759,0-1.439-0.17-2.04-0.51
			c-0.602-0.34-1.072-0.823-1.413-1.449c-0.341-0.626-0.51-1.358-0.51-2.196c0-0.838,0.167-1.573,0.502-2.204
			c0.336-0.631,0.804-1.114,1.405-1.45c0.601-0.335,1.286-0.503,2.055-0.503c0.769,0,1.443,0.168,2.019,0.503
			c0.577,0.336,1.021,0.787,1.331,1.353c0.311,0.567,0.466,1.196,0.466,1.886C256.227,103.728,256.217,103.999,256.197,104.186z
			 M254.814,101.805c-0.252-0.424-0.594-0.745-1.028-0.961c-0.433-0.217-0.907-0.326-1.419-0.326c-0.769,0-1.425,0.247-1.968,0.74
			c-0.542,0.494-0.843,1.189-0.902,2.086h5.679C255.186,102.742,255.066,102.229,254.814,101.805z"/>
		<path fill="#FFFFFF" d="M265.545,99.749l-4.792,11.878h-1.08l1.568-3.846l-3.313-8.031h1.139l2.751,6.893l2.663-6.893H265.545z"/>
		<path fill="#FFFFFF" d="M269.206,107.433c-0.606-0.34-1.085-0.823-1.435-1.449c-0.349-0.626-0.525-1.358-0.525-2.196
			c0-0.838,0.178-1.57,0.532-2.196c0.356-0.626,0.838-1.11,1.449-1.45c0.611-0.34,1.296-0.51,2.057-0.51
			c0.759,0,1.447,0.17,2.063,0.51c0.616,0.34,1.1,0.824,1.449,1.45c0.351,0.626,0.525,1.358,0.525,2.196
			c0,0.828-0.177,1.558-0.532,2.189c-0.354,0.631-0.843,1.117-1.464,1.457c-0.621,0.34-1.311,0.51-2.071,0.51
			C270.495,107.943,269.813,107.773,269.206,107.433z M272.734,106.679c0.453-0.242,0.82-0.607,1.102-1.095
			c0.281-0.488,0.421-1.087,0.421-1.797c0-0.71-0.138-1.309-0.413-1.797c-0.277-0.488-0.641-0.852-1.095-1.094
			s-0.947-0.363-1.479-0.363s-1.026,0.121-1.479,0.363s-0.815,0.606-1.087,1.094c-0.271,0.489-0.407,1.087-0.407,1.797
			c0,0.71,0.137,1.309,0.407,1.797c0.272,0.488,0.631,0.853,1.08,1.095c0.448,0.242,0.939,0.362,1.472,0.362
			C271.787,107.041,272.28,106.92,272.734,106.679z"/>
		<path fill="#FFFFFF" d="M284.137,100.496c0.611,0.597,0.917,1.462,0.917,2.596v4.733h-1.02v-4.614c0-0.878-0.22-1.548-0.659-2.012
			c-0.438-0.463-1.038-0.695-1.797-0.695c-0.779,0-1.4,0.246-1.863,0.74c-0.465,0.493-0.695,1.217-0.695,2.174v4.408h-1.036v-8.076
			h1.036v1.376c0.256-0.494,0.625-0.871,1.109-1.132s1.031-0.392,1.642-0.392C282.737,99.601,283.526,99.899,284.137,100.496z"/>
		<path fill="#FFFFFF" d="M288.145,101.591c0.336-0.626,0.797-1.11,1.383-1.45s1.25-0.51,1.989-0.51c0.71,0,1.352,0.173,1.923,0.518
			c0.572,0.345,0.992,0.794,1.258,1.346V96.88h1.036v10.945h-1.036v-1.804c-0.247,0.562-0.65,1.023-1.212,1.383
			s-1.223,0.54-1.982,0.54c-0.74,0-1.403-0.172-1.99-0.518c-0.586-0.345-1.045-0.833-1.375-1.464
			c-0.331-0.631-0.495-1.36-0.495-2.189S287.81,102.217,288.145,101.591z M294.298,102.071c-0.266-0.493-0.629-0.872-1.087-1.139
			c-0.458-0.267-0.963-0.4-1.516-0.4c-0.572,0-1.085,0.128-1.538,0.385c-0.453,0.257-0.812,0.629-1.072,1.117
			c-0.262,0.488-0.392,1.067-0.392,1.738c0,0.661,0.13,1.24,0.392,1.738c0.261,0.498,0.619,0.877,1.072,1.139
			c0.453,0.262,0.966,0.392,1.538,0.392c0.552,0,1.057-0.133,1.516-0.399c0.458-0.266,0.822-0.646,1.087-1.139
			c0.267-0.493,0.4-1.065,0.4-1.715C294.697,103.136,294.565,102.565,294.298,102.071z"/>
	</g>
	<g>
		<g>
			<path fill="#1D1A1A" d="M111.827,59.107c0-1.434,0-20.638,0-23.12c0.001-0.728-0.119-1.405-0.365-2.008
				c-0.183-0.451-0.438-0.856-0.739-1.193c-0.452-0.507-1-0.851-1.535-1.057c-0.537-0.207-1.063-0.288-1.555-0.289
				c-0.349,0.001-0.68,0.04-1.009,0.127c-1.448,0.386-3.048,1.034-4.791,1.869c-3.045,1.461-6.518,3.502-10.045,5.749
				c-5.287,3.37-10.683,7.204-14.767,10.201c-4.083,2.996-6.849,5.153-6.859,5.161l0,0.001c-0.327,0.233-0.594,0.512-0.79,0.795
				c-0.337,0.49-0.493,0.972-0.58,1.373c-0.085,0.403-0.101,0.736-0.101,0.97c0,0.096,0.003,0.174,0.006,0.234
				c0.001,0.127,0.002,0.486,0.004,1.041c0.01,2.446,0.036,8.597,0.059,14.433c0.023,5.835,0.043,11.362,0.043,12.539
				c0.002,1.503,0.181,2.486,0.457,3.212c0.139,0.362,0.307,0.658,0.495,0.897c0.171,0.218,0.36,0.381,0.534,0.493l-0.001,0.002
				l27.005,17.458l0.146,0.061c0.694,0.29,1.394,0.438,2.064,0.437c0.422,0,0.829-0.058,1.205-0.163
				c0.66-0.183,1.217-0.504,1.661-0.86c0.668-0.538,1.104-1.147,1.404-1.664c0.15-0.26,0.264-0.498,0.352-0.71
				c0.044-0.107,0.081-0.206,0.115-0.307c0.017-0.051,0.032-0.102,0.048-0.158c0.015-0.057,0.03-0.118,0.046-0.206
				c0.234-1.339,0.377-2.879,0.467-4.554c0.089-1.674,0.122-3.48,0.122-5.326c0-4.72-0.216-9.713-0.291-13.262
				c-0.02-0.978-0.191-1.898-0.473-2.743c-0.494-1.48-1.316-2.715-2.234-3.724c-1.13-1.239-2.401-2.152-3.517-2.819
				c0.987-0.657,2.171-1.449,3.396-2.279c1.56-1.057,3.184-2.174,4.559-3.154c0.687-0.491,1.312-0.947,1.841-1.35
				c0.265-0.202,0.505-0.39,0.72-0.565c0.216-0.176,0.405-0.337,0.576-0.497c0.984-0.917,1.589-1.876,1.925-2.721
				c0.338-0.845,0.412-1.563,0.412-2.014C111.839,59.292,111.833,59.189,111.827,59.107z M99.883,77.881
				c0.363,0.498,0.66,1.032,0.871,1.604c0.21,0.574,0.337,1.186,0.352,1.87c0.077,3.611,0.291,8.569,0.291,13.187
				c0,1.803-0.033,3.553-0.117,5.139c-0.082,1.544-0.215,2.933-0.404,4.043c-0.025,0.062-0.08,0.186-0.158,0.319
				c-0.14,0.246-0.356,0.521-0.568,0.682c-0.106,0.082-0.207,0.14-0.307,0.177c-0.101,0.037-0.2,0.059-0.337,0.059
				c-0.139-0.001-0.329-0.028-0.587-0.122L72.861,87.996L95.07,74.217c0.111,0.051,0.229,0.105,0.357,0.168
				c0.505,0.246,1.13,0.585,1.772,1.013C98.164,76.04,99.16,76.885,99.883,77.881z M108.151,60.117
				c-0.15,0.371-0.434,0.869-1.057,1.452c-0.083,0.078-0.221,0.198-0.396,0.34c-0.329,0.268-0.789,0.619-1.329,1.016
				c-0.946,0.696-2.142,1.538-3.398,2.404c-1.885,1.3-3.906,2.656-5.454,3.686c-0.774,0.515-1.43,0.949-1.892,1.253
				c-0.231,0.152-0.414,0.272-0.538,0.354c-0.125,0.082-0.191,0.125-0.191,0.125l-0.745,0.488L72.329,84.153
				c-0.008-2.811-0.029-8.144-0.049-13.284c-0.027-6.68-0.053-13.02-0.053-13.02l0-0.082l-0.005-0.054l-0.001-0.028
				c-0.002-0.069,0.015-0.229,0.041-0.299l0.001-0.002l0.003-0.002l0.067-0.053c0,0,0.023-0.018,0.071-0.055
				c0.739-0.574,7.179-5.553,14.642-10.697c3.73-2.572,7.718-5.185,11.358-7.301c1.819-1.058,3.55-1.991,5.107-2.731
				c1.555-0.74,2.942-1.283,4.019-1.568l0.001,0c0.007-0.002,0.05-0.009,0.104-0.009c0.078-0.001,0.176,0.014,0.252,0.04
				c0.058,0.02,0.104,0.044,0.141,0.069c0.054,0.041,0.093,0.076,0.15,0.189c0.053,0.114,0.122,0.327,0.123,0.719
				c0,2.579,0,23.208,0,23.208l0,0.134l0.012,0.077l0,0.008C108.31,59.492,108.299,59.747,108.151,60.117z"/>
			<path fill="#1D1A1A" d="M64.653,55.342c-0.196-0.283-0.463-0.562-0.79-0.795l0.001-0.001c-0.01-0.008-2.777-2.165-6.859-5.161
				c-4.083-2.996-9.479-6.83-14.767-10.201c-3.527-2.247-7-4.288-10.045-5.749c-1.744-0.835-3.343-1.483-4.791-1.869
				c-0.329-0.087-0.661-0.126-1.009-0.127c-0.491,0.001-1.017,0.082-1.555,0.289c-0.535,0.206-1.082,0.55-1.535,1.057
				c-0.301,0.337-0.556,0.742-0.739,1.193c-0.246,0.603-0.365,1.28-0.365,2.008c0,2.482,0,21.686,0,23.12
				c-0.007,0.082-0.012,0.185-0.012,0.307c0,0.451,0.073,1.169,0.412,2.014c0.336,0.844,0.94,1.804,1.925,2.721
				c0.172,0.16,0.361,0.321,0.576,0.497c0.215,0.175,0.456,0.363,0.72,0.565c0.529,0.403,1.153,0.859,1.841,1.35
				c1.374,0.981,2.999,2.098,4.559,3.154c1.225,0.83,2.409,1.622,3.396,2.279c-1.115,0.667-2.387,1.58-3.516,2.819
				c-0.917,1.009-1.74,2.244-2.234,3.724c-0.282,0.844-0.453,1.765-0.473,2.743c-0.075,3.549-0.291,8.542-0.291,13.262
				c0,1.846,0.033,3.652,0.122,5.326c0.089,1.675,0.233,3.215,0.467,4.554c0.016,0.088,0.031,0.149,0.046,0.206
				c0.015,0.057,0.031,0.108,0.047,0.158c0.033,0.101,0.071,0.2,0.115,0.307c0.088,0.212,0.202,0.45,0.352,0.71
				c0.3,0.517,0.737,1.126,1.405,1.664c0.444,0.356,1,0.677,1.661,0.86c0.376,0.105,0.783,0.163,1.205,0.163
				c0.67,0.001,1.37-0.147,2.064-0.437l0.146-0.061l27.005-17.458l-0.001-0.002c0.173-0.112,0.363-0.275,0.534-0.493
				c0.188-0.239,0.356-0.535,0.495-0.897c0.276-0.726,0.455-1.709,0.457-3.212c0-1.177,0.02-6.705,0.043-12.539
				c0.023-5.836,0.049-11.988,0.059-14.433c0.002-0.554,0.004-0.914,0.004-1.041c0.003-0.06,0.006-0.137,0.006-0.234
				c-0.001-0.234-0.016-0.567-0.101-0.97C65.146,56.314,64.991,55.832,64.653,55.342z M35.108,104.841
				c-0.257,0.093-0.447,0.121-0.587,0.122c-0.137-0.001-0.236-0.022-0.337-0.059c-0.1-0.038-0.201-0.095-0.307-0.177
				c-0.212-0.161-0.428-0.436-0.568-0.682c-0.078-0.133-0.133-0.257-0.158-0.319c-0.189-1.111-0.323-2.499-0.404-4.043
				c-0.084-1.586-0.117-3.335-0.117-5.139c0-4.619,0.213-9.576,0.291-13.187c0.015-0.683,0.142-1.296,0.352-1.87
				c0.21-0.573,0.508-1.106,0.871-1.604c0.723-0.996,1.719-1.841,2.684-2.482c0.642-0.428,1.267-0.767,1.772-1.013
				c0.128-0.063,0.246-0.117,0.357-0.168l22.209,13.778L35.108,104.841z M61.805,57.713L61.8,57.767l0,0.082
				c0,0-0.027,6.34-0.053,13.02c-0.021,5.14-0.041,10.473-0.049,13.284L40.875,71.236l-0.745-0.488c0,0-0.066-0.043-0.191-0.125
				c-0.125-0.082-0.307-0.202-0.538-0.354c-0.462-0.305-1.118-0.738-1.892-1.253c-1.548-1.03-3.569-2.386-5.454-3.686
				c-1.256-0.866-2.452-1.708-3.399-2.404c-0.54-0.397-0.999-0.748-1.329-1.016c-0.175-0.142-0.314-0.262-0.397-0.34
				c-0.623-0.584-0.906-1.082-1.057-1.452c-0.148-0.37-0.159-0.625-0.159-0.703l0-0.008l0.012-0.077v-0.134c0,0,0-20.629,0-23.208
				c0.001-0.392,0.07-0.605,0.123-0.719c0.056-0.114,0.096-0.148,0.15-0.189c0.036-0.026,0.082-0.05,0.14-0.069
				c0.076-0.026,0.174-0.041,0.252-0.04c0.054,0,0.097,0.007,0.104,0.009l0.001,0c1.078,0.284,2.465,0.828,4.019,1.568
				c1.557,0.739,3.289,1.673,5.107,2.731c3.639,2.116,7.627,4.729,11.358,7.301c7.464,5.144,13.903,10.123,14.642,10.697
				c0.048,0.037,0.071,0.055,0.071,0.055l0.067,0.053l0.003,0.002l0.001,0.002c0.026,0.07,0.043,0.23,0.041,0.299L61.805,57.713z"/>
		</g>
	</g>
</g>
</svg>
