<?xml version="1.0" encoding="utf-8"?>
<!-- Generator: Adobe Illustrator 17.0.0, SVG Export Plug-In . SVG Version: 6.00 Build 0)  -->
<!DOCTYPE svg PUBLIC "-//W3C//DTD SVG 1.1//EN" "http://www.w3.org/Graphics/SVG/1.1/DTD/svg11.dtd">
<svg version="1.1" id="Layer_1" xmlns="http://www.w3.org/2000/svg" xmlns:xlink="http://www.w3.org/1999/xlink" x="0px" y="0px"
	 width="774.077px" height="660.066px" viewBox="0 0 774.077 660.066" enable-background="new 0 0 774.077 660.066"
	 xml:space="preserve">
<g>
	<g>
		<g>
			<path fill="#E1E1E1" d="M566.82,209.187c0-0.171,1.195-0.31,2.669-0.31c0.288,0.006,0.568,0.011,0.898,0.018l-0.291,0.291
				c0.043-1.034,0.157-1.771,0.292-1.771c0.134,0,0.249,0.736,0.291,1.771l0.012,0.285l-0.303,0.006
				c-0.33,0.007-0.61,0.012-0.898,0.018C568.015,209.497,566.82,209.358,566.82,209.187z"/>
		</g>
		<g>
			<ellipse fill="#E1E1E1" cx="561.47" cy="209.187" rx="1.783" ry="0.31"/>
		</g>
		<g>
			<ellipse fill="#E1E1E1" cx="554.336" cy="209.187" rx="1.783" ry="0.31"/>
		</g>
		<g>
			<ellipse fill="#E1E1E1" cx="547.202" cy="209.187" rx="1.783" ry="0.31"/>
		</g>
		<g>
			<ellipse fill="#E1E1E1" cx="540.068" cy="209.187" rx="1.783" ry="0.31"/>
		</g>
		<g>
			<ellipse fill="#E1E1E1" cx="532.935" cy="209.187" rx="1.783" ry="0.31"/>
		</g>
		<g>
			<ellipse fill="#E1E1E1" cx="525.801" cy="209.187" rx="1.783" ry="0.31"/>
		</g>
		<g>
			<ellipse fill="#E1E1E1" cx="518.667" cy="209.187" rx="1.783" ry="0.31"/>
		</g>
		<g>
			<ellipse fill="#E1E1E1" cx="511.533" cy="209.187" rx="1.783" ry="0.31"/>
		</g>
		<g>
			<ellipse fill="#E1E1E1" cx="504.399" cy="209.187" rx="1.783" ry="0.31"/>
		</g>
		<g>
			<ellipse fill="#E1E1E1" cx="497.266" cy="209.187" rx="1.783" ry="0.31"/>
		</g>
		<g>
			<ellipse fill="#E1E1E1" cx="490.132" cy="209.187" rx="1.783" ry="0.31"/>
		</g>
		<g>
			<ellipse fill="#E1E1E1" cx="482.998" cy="209.187" rx="1.783" ry="0.31"/>
		</g>
		<g>
			<ellipse fill="#E1E1E1" cx="475.864" cy="209.187" rx="1.783" ry="0.31"/>
		</g>
		<g>
			<ellipse fill="#E1E1E1" cx="468.73" cy="209.187" rx="1.783" ry="0.31"/>
		</g>
		<g>
			<ellipse fill="#E1E1E1" cx="461.597" cy="209.187" rx="1.783" ry="0.31"/>
		</g>
		<g>
			<ellipse fill="#E1E1E1" cx="454.463" cy="209.187" rx="1.783" ry="0.31"/>
		</g>
		<g>
			<ellipse fill="#E1E1E1" cx="447.329" cy="209.187" rx="1.783" ry="0.31"/>
		</g>
		<g>
			<ellipse fill="#E1E1E1" cx="443.319" cy="206.063" rx="0.31" ry="1.783"/>
		</g>
		<g>
			<ellipse fill="#E1E1E1" cx="443.319" cy="198.929" rx="0.31" ry="1.783"/>
		</g>
		<g>
			<ellipse fill="#E1E1E1" cx="443.319" cy="191.796" rx="0.31" ry="1.783"/>
		</g>
		<g>
			<ellipse fill="#E1E1E1" cx="443.319" cy="184.662" rx="0.31" ry="1.783"/>
		</g>
		<g>
			<ellipse fill="#E1E1E1" cx="443.319" cy="177.528" rx="0.31" ry="1.783"/>
		</g>
		<g>
			<ellipse fill="#E1E1E1" cx="443.319" cy="170.394" rx="0.31" ry="1.783"/>
		</g>
		<g>
			<ellipse fill="#E1E1E1" cx="443.319" cy="163.26" rx="0.31" ry="1.783"/>
		</g>
		<g>
			<ellipse fill="#E1E1E1" cx="443.319" cy="156.126" rx="0.31" ry="1.783"/>
		</g>
		<g>
			<ellipse fill="#E1E1E1" cx="443.319" cy="148.993" rx="0.31" ry="1.783"/>
		</g>
		<g>
			<ellipse fill="#E1E1E1" cx="443.319" cy="141.859" rx="0.31" ry="1.783"/>
		</g>
		<g>
			<ellipse fill="#E1E1E1" cx="443.319" cy="134.725" rx="0.31" ry="1.783"/>
		</g>
		<g>
			<ellipse fill="#E1E1E1" cx="443.319" cy="127.591" rx="0.31" ry="1.783"/>
		</g>
		<g>
			<ellipse fill="#E1E1E1" cx="443.319" cy="120.457" rx="0.31" ry="1.783"/>
		</g>
		<g>
			<ellipse fill="#E1E1E1" cx="443.319" cy="113.324" rx="0.31" ry="1.783"/>
		</g>
		<g>
			<ellipse fill="#E1E1E1" cx="443.319" cy="106.19" rx="0.31" ry="1.783"/>
		</g>
		<g>
			<ellipse fill="#E1E1E1" cx="443.319" cy="99.056" rx="0.31" ry="1.783"/>
		</g>
		<g>
			<ellipse fill="#E1E1E1" cx="443.319" cy="91.922" rx="0.31" ry="1.783"/>
		</g>
		<g>
			<ellipse fill="#E1E1E1" cx="443.319" cy="84.789" rx="0.31" ry="1.783"/>
		</g>
		<g>
			<ellipse fill="#E1E1E1" cx="447.784" cy="82.12" rx="1.783" ry="0.31"/>
		</g>
		<g>
			<ellipse fill="#E1E1E1" cx="454.918" cy="82.12" rx="1.783" ry="0.31"/>
		</g>
		<g>
			<ellipse fill="#E1E1E1" cx="462.052" cy="82.12" rx="1.783" ry="0.31"/>
		</g>
		<g>
			<ellipse fill="#E1E1E1" cx="469.186" cy="82.12" rx="1.783" ry="0.31"/>
		</g>
		<g>
			<ellipse fill="#E1E1E1" cx="476.319" cy="82.12" rx="1.783" ry="0.31"/>
		</g>
		<g>
			<ellipse fill="#E1E1E1" cx="483.453" cy="82.12" rx="1.783" ry="0.31"/>
		</g>
		<g>
			<ellipse fill="#E1E1E1" cx="490.587" cy="82.12" rx="1.783" ry="0.31"/>
		</g>
		<g>
			<ellipse fill="#E1E1E1" cx="497.721" cy="82.12" rx="1.783" ry="0.31"/>
		</g>
		<g>
			<ellipse fill="#E1E1E1" cx="504.854" cy="82.12" rx="1.783" ry="0.31"/>
		</g>
		<g>
			<ellipse fill="#E1E1E1" cx="511.988" cy="82.12" rx="1.783" ry="0.31"/>
		</g>
		<g>
			<ellipse fill="#E1E1E1" cx="519.122" cy="82.12" rx="1.783" ry="0.31"/>
		</g>
		<g>
			<ellipse fill="#E1E1E1" cx="526.256" cy="82.12" rx="1.783" ry="0.31"/>
		</g>
		<g>
			<ellipse fill="#E1E1E1" cx="533.39" cy="82.12" rx="1.783" ry="0.31"/>
		</g>
		<g>
			<ellipse fill="#E1E1E1" cx="540.523" cy="82.12" rx="1.783" ry="0.31"/>
		</g>
		<g>
			<ellipse fill="#E1E1E1" cx="547.657" cy="82.12" rx="1.783" ry="0.31"/>
		</g>
		<g>
			<ellipse fill="#E1E1E1" cx="554.791" cy="82.12" rx="1.783" ry="0.31"/>
		</g>
		<g>
			<ellipse fill="#E1E1E1" cx="561.925" cy="82.12" rx="1.783" ry="0.31"/>
		</g>
		<g>
			<path fill="#E1E1E1" d="M570.387,82.575c-0.079,0-0.151-0.17-0.206-0.455l0.205,0.205c-0.321,0.064-0.798,0.104-1.328,0.104
				c-0.985,0-1.784-0.139-1.784-0.31s0.798-0.31,1.784-0.31c0.53,0,1.007,0.04,1.328,0.104l0.236,0.047l-0.031,0.159
				C570.538,82.405,570.466,82.575,570.387,82.575z"/>
		</g>
		<g>
			<ellipse fill="#E1E1E1" cx="570.387" cy="87.925" rx="0.31" ry="1.783"/>
		</g>
		<g>
			<ellipse fill="#E1E1E1" cx="570.387" cy="95.059" rx="0.31" ry="1.783"/>
		</g>
		<g>
			<ellipse fill="#E1E1E1" cx="570.387" cy="102.193" rx="0.31" ry="1.783"/>
		</g>
		<g>
			<ellipse fill="#E1E1E1" cx="570.387" cy="109.327" rx="0.31" ry="1.783"/>
		</g>
		<g>
			<ellipse fill="#E1E1E1" cx="570.387" cy="116.46" rx="0.31" ry="1.783"/>
		</g>
		<g>
			<ellipse fill="#E1E1E1" cx="570.387" cy="123.594" rx="0.31" ry="1.783"/>
		</g>
		<g>
			<ellipse fill="#E1E1E1" cx="570.387" cy="130.728" rx="0.31" ry="1.783"/>
		</g>
		<g>
			<ellipse fill="#E1E1E1" cx="570.387" cy="137.862" rx="0.31" ry="1.783"/>
		</g>
		<g>
			<ellipse fill="#E1E1E1" cx="570.387" cy="144.995" rx="0.31" ry="1.783"/>
		</g>
		<g>
			<ellipse fill="#E1E1E1" cx="570.387" cy="152.129" rx="0.31" ry="1.783"/>
		</g>
		<g>
			<ellipse fill="#E1E1E1" cx="570.387" cy="159.263" rx="0.31" ry="1.783"/>
		</g>
		<g>
			<ellipse fill="#E1E1E1" cx="570.387" cy="166.397" rx="0.31" ry="1.783"/>
		</g>
		<g>
			<ellipse fill="#E1E1E1" cx="570.387" cy="173.531" rx="0.31" ry="1.783"/>
		</g>
		<g>
			<ellipse fill="#E1E1E1" cx="570.387" cy="180.665" rx="0.31" ry="1.783"/>
		</g>
		<g>
			<ellipse fill="#E1E1E1" cx="570.387" cy="187.798" rx="0.31" ry="1.783"/>
		</g>
		<g>
			<ellipse fill="#E1E1E1" cx="570.387" cy="194.932" rx="0.31" ry="1.783"/>
		</g>
		<g>
			<ellipse fill="#E1E1E1" cx="570.387" cy="202.066" rx="0.31" ry="1.783"/>
		</g>
	</g>
	<rect x="565.681" y="203.194" fill="#E1E1E1" width="9.411" height="9.411"/>
	<rect x="438.614" y="204.482" fill="#E1E1E1" width="9.411" height="9.411"/>
	<rect x="565.681" y="76.498" fill="#E1E1E1" width="9.411" height="9.411"/>
	<rect x="438.614" y="77.414" fill="#E1E1E1" width="9.411" height="9.411"/>
</g>
<g>
	<g>
		<g>
			<path fill-rule="evenodd" clip-rule="evenodd" fill="#DB4632" d="M123.917,150.732c0.83-1.112,1.797-2.092,2.866-2.926
				l-0.682-3.735l5.778-2.465l2.225,3.076c1.342-0.195,2.718-0.215,4.095-0.045l2.158-3.122l5.829,2.342l-0.602,3.747
				c1.112,0.83,2.092,1.797,2.926,2.866l3.735-0.682l2.466,5.777l-3.077,2.225c0.195,1.341,0.214,2.717,0.045,4.095l3.122,2.158
				l-2.342,5.829l-3.747-0.602c-0.83,1.112-1.797,2.092-2.866,2.925l0.682,3.735l-5.778,2.465l-2.225-3.077
				c-1.341,0.195-2.717,0.214-4.095,0.045l-2.158,3.122l-5.829-2.342l0.602-3.747c-1.112-0.83-2.092-1.797-2.926-2.866l-3.735,0.682
				l-2.465-5.777l3.077-2.225c-0.195-1.341-0.214-2.717-0.045-4.095l-3.122-2.158l2.342-5.829L123.917,150.732L123.917,150.732z
				 M130.167,157.224c-1.388,3.453,0.287,7.378,3.74,8.765c3.453,1.388,7.378-0.287,8.765-3.74c1.387-3.453-0.287-7.378-3.74-8.765
				C135.479,152.096,131.555,153.771,130.167,157.224z"/>
		</g>
		<g>
			<path fill-rule="evenodd" clip-rule="evenodd" fill="#DB4632" d="M164.453,190.097c2.913-3.9,6.304-7.338,10.053-10.263
				l-2.393-13.104l20.27-8.649l7.806,10.793c4.706-0.684,9.534-0.753,14.366-0.158l7.571-10.953l20.448,8.217l-2.112,13.144
				c3.901,2.913,7.339,6.305,10.264,10.055l13.103-2.392l8.65,20.268l-10.793,7.807c0.683,4.706,0.752,9.534,0.157,14.365
				l10.953,7.572l-8.216,20.449l-13.146-2.111c-2.913,3.901-6.305,7.338-10.054,10.263l2.393,13.104l-20.269,8.649l-7.807-10.794
				c-4.706,0.683-9.533,0.752-14.365,0.157l-7.571,10.953l-20.449-8.217l2.112-13.145c-3.901-2.913-7.339-6.304-10.264-10.055
				l-13.104,2.392l-8.649-20.268l10.794-7.807c-0.683-4.705-0.752-9.534-0.158-14.365l-10.953-7.571l8.216-20.448L164.453,190.097
				L164.453,190.097z M186.38,212.873c-4.868,12.115,1.007,25.882,13.123,30.75c12.115,4.867,25.882-1.007,30.749-13.123
				c4.868-12.115-1.007-25.882-13.122-30.75C205.015,194.883,191.248,200.758,186.38,212.873z"/>
		</g>
		<g>
			<g>
				<path fill="#DB4632" d="M80.353,229.62c1.434-1.92,3.103-3.612,4.948-5.052l-1.178-6.451l9.977-4.257l3.842,5.313
					c2.316-0.336,4.693-0.371,7.072-0.078l3.727-5.391l10.066,4.045l-1.039,6.47c1.92,1.434,3.613,3.104,5.052,4.95l6.45-1.178
					l4.258,9.977l-5.313,3.843c0.336,2.316,0.37,4.693,0.077,7.071l5.391,3.727l-4.044,10.066l-6.471-1.039
					c-1.434,1.92-3.104,3.612-4.949,5.052l1.178,6.45l-9.977,4.257l-3.843-5.313c-2.316,0.336-4.693,0.37-7.071,0.077l-3.727,5.392
					l-10.066-4.044l1.04-6.47c-1.92-1.434-3.613-3.103-5.052-4.949l-6.45,1.178l-4.257-9.977l5.313-3.843
					c-0.336-2.316-0.37-4.693-0.077-7.071l-5.392-3.727l4.044-10.066L80.353,229.62L80.353,229.62z M91.147,240.831
					c-2.396,5.964,0.496,12.74,6.459,15.136c5.964,2.396,12.74-0.496,15.136-6.46c2.396-5.964-0.496-12.74-6.459-15.136
					C100.319,231.976,93.543,234.868,91.147,240.831z"/>
			</g>
			<g>
				<g>
					<path fill="#DB4632" d="M91.147,240.831c0,0,0.241-1.024,1.292-2.577c1.033-1.52,3.083-3.576,6.358-4.52
						c1.617-0.454,3.514-0.637,5.47-0.243c1.94,0.4,3.97,1.267,5.635,2.786c0.85,0.733,1.596,1.627,2.21,2.628
						c0.629,0.992,1.114,2.108,1.409,3.294c0.642,2.363,0.478,5.015-0.469,7.431c-0.988,2.401-2.705,4.429-4.803,5.692
						c-1.034,0.653-2.156,1.123-3.297,1.405c-1.136,0.298-2.294,0.427-3.414,0.368c-2.253-0.055-4.319-0.835-5.996-1.888
						c-1.685-1.069-2.928-2.514-3.781-3.961c-1.711-2.947-1.768-5.85-1.463-7.662C90.612,241.737,91.147,240.831,91.147,240.831
						c0.078,0.026-0.363,0.972-0.593,2.789c-0.221,1.784-0.084,4.587,1.611,7.386c0.845,1.374,2.053,2.736,3.673,3.736
						c1.612,0.983,3.584,1.706,5.72,1.74c1.063,0.048,2.159-0.082,3.233-0.37c1.079-0.272,2.139-0.721,3.114-1.344
						c1.981-1.201,3.594-3.118,4.529-5.386c0.893-2.284,1.054-4.782,0.455-7.02c-0.273-1.123-0.728-2.181-1.318-3.124
						c-0.576-0.951-1.276-1.803-2.077-2.504c-1.566-1.453-3.489-2.296-5.333-2.701c-1.86-0.399-3.675-0.252-5.236,0.156
						c-3.161,0.848-5.199,2.776-6.274,4.218C91.557,239.878,91.221,240.868,91.147,240.831z"/>
				</g>
			</g>
			<g>
				<g>
					<path fill="#DB4632" d="M80.353,229.62c0.004,0.009-0.133-0.005-0.407-0.041c-0.302-0.042-0.706-0.098-1.229-0.171
						c-1.126-0.168-2.747-0.409-4.852-0.722l0.115-0.065c-1.021,2.583-2.362,5.98-3.986,10.089l-0.061-0.202
						c1.638,1.123,3.459,2.37,5.406,3.705l0.097,0.067l-0.014,0.119c-0.261,2.189-0.263,4.561,0.1,7.015l0.019,0.131l-0.108,0.079
						c-1.653,1.202-3.441,2.504-5.302,3.858l0.079-0.286c1.348,3.139,2.778,6.469,4.28,9.967l-0.289-0.155
						c1.996-0.368,4.194-0.774,6.447-1.19l0.164-0.03l0.103,0.132c1.34,1.716,3.041,3.428,5.007,4.888l0.14,0.104l-0.027,0.173
						c-0.319,2.006-0.671,4.218-1.03,6.472l-0.183-0.323c3.163,1.267,6.574,2.632,10.07,4.032l-0.371,0.112
						c1.159-1.68,2.432-3.526,3.721-5.395l0.109-0.158l0.191,0.023c2.174,0.268,4.587,0.271,6.986-0.082l0.193-0.028l0.115,0.159
						c1.205,1.663,2.519,3.478,3.846,5.311l-0.393-0.109c3.158-1.349,6.544-2.796,9.975-4.262l-0.196,0.364
						c-0.373-2.037-0.774-4.235-1.179-6.45l-0.036-0.199l0.159-0.124c1.751-1.363,3.45-3.061,4.883-4.984l0.004-0.005l0.123-0.162
						l0.198,0.032c2.172,0.349,4.331,0.696,6.47,1.04l-0.362,0.205c1.367-3.401,2.717-6.757,4.046-10.064l0.119,0.395
						c-1.814-1.256-3.611-2.499-5.39-3.729l-0.163-0.113l0.024-0.197c0.291-2.345,0.258-4.701-0.072-6.984l-0.028-0.194l0.158-0.114
						c1.798-1.298,3.568-2.576,5.316-3.839l-0.106,0.382c-1.45-3.407-2.866-6.736-4.247-9.981l0.337,0.182
						c-2.189,0.397-4.339,0.786-6.451,1.169l-0.179,0.032l-0.111-0.143c-1.467-1.886-3.159-3.53-4.989-4.902l-0.14-0.105
						l0.028-0.172c0.36-2.218,0.709-4.368,1.05-6.468l0.171,0.301c-3.538-1.43-6.878-2.78-10.057-4.065l0.305-0.092
						c-1.315,1.893-2.549,3.669-3.74,5.382l-0.083,0.119l-0.143-0.018c-2.484-0.31-4.824-0.252-7.01,0.057l-0.132,0.019
						l-0.077-0.107c-1.39-1.935-2.642-3.679-3.824-5.325l0.237,0.066c-3.872,1.632-7.172,3.023-9.996,4.213l0.088-0.164
						c0.454,2.579,0.826,4.695,1.136,6.458l0.011,0.065l-0.051,0.039c-1.886,1.457-3.099,2.759-3.877,3.634
						c-0.366,0.431-0.646,0.762-0.852,1.004C80.449,229.524,80.356,229.629,80.353,229.62c-0.003-0.008,0.079-0.134,0.242-0.364
						c0.173-0.234,0.435-0.588,0.811-1.041c0.754-0.902,1.949-2.236,3.829-3.731l-0.039,0.104c-0.333-1.758-0.732-3.869-1.219-6.443
						l-0.022-0.117l0.111-0.048c2.814-1.215,6.101-2.635,9.959-4.301l0.144-0.062l0.093,0.128c1.193,1.639,2.457,3.374,3.86,5.299
						l-0.209-0.088c2.221-0.328,4.602-0.401,7.132-0.098l-0.226,0.101c1.182-1.719,2.408-3.501,3.714-5.4l0.115-0.168l0.19,0.076
						c3.185,1.272,6.53,2.608,10.074,4.024l0.205,0.082l-0.035,0.219c-0.334,2.101-0.676,4.253-1.028,6.472l-0.112-0.277
						c1.875,1.396,3.61,3.072,5.115,4.997l-0.289-0.11c2.111-0.388,4.26-0.783,6.448-1.186l0.241-0.044l0.097,0.226
						c1.387,3.243,2.811,6.568,4.267,9.972l0.1,0.233l-0.206,0.149c-1.746,1.265-3.514,2.546-5.31,3.847l0.13-0.308
						c0.342,2.339,0.378,4.753,0.083,7.157l-0.139-0.309c1.78,1.229,3.577,2.471,5.393,3.725l0.217,0.15l-0.098,0.245
						c-1.328,3.308-2.676,6.665-4.041,10.067l-0.099,0.247l-0.263-0.042c-2.139-0.343-4.298-0.69-6.471-1.039l0.32-0.13
						l-0.004,0.005c-1.469,1.972-3.211,3.712-5.007,5.109l0.123-0.322c0.404,2.214,0.805,4.413,1.176,6.45l0.048,0.261l-0.244,0.104
						c-3.433,1.463-6.82,2.907-9.979,4.253l-0.24,0.103l-0.153-0.212c-1.325-1.834-2.637-3.65-3.839-5.315l0.308,0.13
						c-2.457,0.358-4.93,0.352-7.156,0.073l0.299-0.134c-1.293,1.867-2.57,3.71-3.732,5.388l-0.141,0.204l-0.23-0.093
						c-3.493-1.408-6.9-2.782-10.061-4.057l-0.221-0.089l0.038-0.234c0.365-2.252,0.724-4.463,1.049-6.468l0.112,0.276
						c-2.005-1.499-3.736-3.254-5.097-5.01l0.267,0.101c-2.255,0.407-4.455,0.804-6.452,1.165l-0.207,0.037l-0.082-0.193
						c-1.486-3.504-2.901-6.842-4.234-9.987l-0.074-0.175l0.154-0.111c1.868-1.343,3.664-2.635,5.324-3.828l-0.088,0.209
						c-0.354-2.498-0.336-4.907-0.055-7.126l0.083,0.185c-1.937-1.35-3.747-2.613-5.376-3.749l-0.112-0.078l0.051-0.124
						c1.67-4.09,3.052-7.471,4.102-10.042l0.033-0.08l0.083,0.014c2.079,0.359,3.68,0.635,4.791,0.827
						c0.527,0.096,0.934,0.17,1.237,0.225C80.206,229.581,80.35,229.612,80.353,229.62z"/>
				</g>
			</g>
		</g>
	</g>
</g>
<g>
	<path fill="#EB4D37" d="M450.566,496.105c-0.35,1.049,11.89,47.561,11.89,47.561l8.393-1.749l-11.54-45.812H450.566z"/>
	<polygon fill="#EB4D37" points="515.612,489.46 498.826,543.666 508.618,543.666 524.704,493.307 	"/>
	<polygon fill="#EB4D37" points="530.999,481.067 511.765,543.666 521.557,543.666 540.092,484.914 	"/>
	<polygon fill="#F45C4D" points="456.511,539.819 466.303,573.741 515.612,573.741 524.704,539.819 	"/>
	<g>
		<path fill="#EB4D37" d="M481.947,539.819c-0.01,0.002-0.047-0.116-0.109-0.349c-0.067-0.265-0.153-0.607-0.261-1.037
			c-0.226-0.954-0.543-2.295-0.947-4.006c-0.807-3.529-1.961-8.574-3.388-14.814c-2.82-12.586-6.717-29.981-11.067-49.399
			l0.302,0.242c-1.381,0-2.862,0-4.353,0c-1.467,0-2.923,0-4.281,0l0.301-0.378c4.377,19.437,8.298,36.846,11.135,49.443
			c1.38,6.258,2.496,11.317,3.276,14.856c0.366,1.721,0.654,3.071,0.858,4.031c0.086,0.435,0.155,0.782,0.208,1.05
			c0.044,0.237,0.061,0.36,0.051,0.362c-0.01,0.002-0.047-0.116-0.11-0.348c-0.068-0.265-0.156-0.607-0.266-1.037
			c-0.23-0.954-0.555-2.295-0.968-4.006c-0.825-3.528-2.005-8.573-3.464-14.813c-2.885-12.586-6.871-29.98-11.322-49.4l-0.087-0.378
			h0.388c1.358,0,2.815,0,4.281,0c1.491,0,2.972,0,4.353,0h0.249l0.053,0.242c4.276,19.435,8.107,36.845,10.879,49.441
			c1.348,6.258,2.438,11.317,3.2,14.856c0.358,1.722,0.638,3.071,0.837,4.031c0.084,0.435,0.151,0.782,0.203,1.05
			C481.94,539.694,481.957,539.816,481.947,539.819z"/>
	</g>
</g>
<g>
	<path fill="#1A2E35" d="M701.359,573.799c0,0.171-141.567,0.31-316.158,0.31c-174.652,0-316.188-0.139-316.188-0.31
		s141.536-0.31,316.188-0.31C559.792,573.49,701.359,573.629,701.359,573.799z"/>
</g>
<g>
	<g>
		<path fill="#FF4F5B" d="M363.961,538.936c-4.07-2.066-8.848-2.307-13.346-1.534c-2.416,0.416-4.934,1.156-6.568,2.984
			c-1.634,1.828-1.925,5.028-0.025,6.577c1.131,0.922,2.701,1.053,4.16,1.027c3.525-0.064,7.432-0.71,10.262,1.393
			c1.615,1.2,2.697,3.204,4.622,3.787c1.883,0.57,3.997-0.553,4.982-2.256s1.005-3.823,0.528-5.732
			C368.577,545.181,368.061,541.018,363.961,538.936z"/>
	</g>
	<g opacity="0.3">
		<path d="M363.961,538.936c-4.07-2.066-8.848-2.307-13.346-1.534c-2.416,0.416-4.934,1.156-6.568,2.984
			c-1.634,1.828-1.925,5.028-0.025,6.577c1.131,0.922,2.701,1.053,4.16,1.027c3.525-0.064,7.432-0.71,10.262,1.393
			c1.615,1.2,2.697,3.204,4.622,3.787c1.883,0.57,3.997-0.553,4.982-2.256s1.005-3.823,0.528-5.732
			C368.577,545.181,368.061,541.018,363.961,538.936z"/>
	</g>
	<g>
		<path fill="#FF4F5B" d="M373.138,520.937c-2.457,3.558-7.285,2.417-9.535,0.269c-2.249-2.148-3.214-5.275-4.093-8.258
			c-2.009-6.815-4.037-13.965-2.621-20.928c0.423-2.082,1.187-4.16,2.638-5.711c1.451-1.552,3.691-2.484,5.748-1.955
			c2.435,0.626,3.961,2.997,5.067,5.255c3.253,6.635,5,14.004,5.073,21.393C375.449,514.453,375.066,518.075,373.138,520.937"/>
	</g>
	<g opacity="0.3">
		<path fill="#FFFFFF" d="M373.138,520.937c-2.457,3.558-7.285,2.417-9.535,0.269c-2.249-2.148-3.214-5.275-4.093-8.258
			c-2.009-6.815-4.037-13.965-2.621-20.928c0.423-2.082,1.187-4.16,2.638-5.711c1.451-1.552,3.691-2.484,5.748-1.955
			c2.435,0.626,3.961,2.997,5.067,5.255c3.253,6.635,5,14.004,5.073,21.393C375.449,514.453,375.066,518.075,373.138,520.937"/>
	</g>
	<g>
		<path fill="#FF4F5B" d="M379.981,525.975c-2.714-3.178-3.255-7.837-2.083-11.848c1.172-4.012,3.857-7.435,6.959-10.236
			c3.637-3.284,7.92-5.849,12.532-7.505c1.815-0.651,3.731-1.169,5.651-0.998c1.921,0.171,3.86,1.14,4.767,2.842
			c1.34,2.516,0.091,5.587-1.266,8.095c-2.39,4.418-5.128,8.647-8.181,12.636c-2.456,3.209-5.272,6.377-9.037,7.845
			c-3.765,1.467-7.687,1.323-9.705-1.281"/>
	</g>
	<g>
		<g>
			<path fill="#1A2E35" d="M373.653,574.371c-0.046,0.003-0.126-0.57-0.235-1.608c-0.122-1.171-0.274-2.641-0.456-4.39
				c-0.217-1.847-0.501-4.045-1.03-6.437c-0.527-2.386-1.345-4.97-2.391-7.59c-1.083-2.604-2.397-4.968-3.928-6.856
				c-1.52-1.896-3.282-3.265-4.936-4.049c-1.648-0.801-3.124-1.121-4.143-1.261c-1.028-0.099-1.603-0.176-1.604-0.222
				c-0.001-0.046,0.575-0.057,1.631-0.036c1.046,0.063,2.582,0.318,4.319,1.094c1.742,0.759,3.611,2.148,5.206,4.083
				c1.607,1.927,2.969,4.343,4.071,6.993c1.064,2.665,1.87,5.276,2.376,7.714c0.503,2.434,0.741,4.656,0.899,6.519
				c0.152,1.865,0.214,3.375,0.247,4.419C373.706,573.79,373.698,574.368,373.653,574.371z"/>
		</g>
	</g>
	<g>
		<g>
			<path fill="#1A2E35" d="M373.328,570.993c-0.023-0.001-0.039-0.258-0.048-0.747c-0.002-0.561-0.005-1.268-0.008-2.136
				c-0.007-1.853-0.025-4.536-0.146-7.847c-0.207-6.623-0.837-15.764-2.004-25.809c-1.175-10.047-2.705-19.082-4.088-25.562
				c-0.328-1.624-0.656-3.086-0.965-4.366c-0.295-1.283-0.547-2.389-0.789-3.283c-0.208-0.842-0.378-1.528-0.513-2.073
				c-0.11-0.476-0.157-0.73-0.135-0.736c0.022-0.007,0.112,0.234,0.264,0.699c0.166,0.536,0.376,1.212,0.633,2.042
				c0.281,0.886,0.57,1.984,0.9,3.262c0.344,1.274,0.705,2.732,1.063,4.354c1.504,6.47,3.111,15.517,4.289,25.585
				c1.17,10.065,1.727,19.233,1.814,25.874c0.061,3.32,0.008,6.009-0.065,7.864c-0.047,0.868-0.086,1.575-0.117,2.135
				C373.38,570.738,373.351,570.994,373.328,570.993z"/>
		</g>
	</g>
	<g>
		<g>
			<path fill="#1A2E35" d="M373.169,553.305c-0.046-0.001-0.043-0.794,0.001-2.231c0.073-1.434,0.256-3.508,0.644-6.049
				c0.411-2.535,0.99-5.546,1.909-8.82c0.872-3.285,2.077-6.834,3.615-10.445c3.008-7.266,7.119-13.218,10.706-16.911
				c0.84-0.979,1.779-1.688,2.529-2.382c0.388-0.333,0.731-0.664,1.081-0.927c0.352-0.246,0.679-0.475,0.983-0.687
				c1.183-0.821,1.846-1.253,1.871-1.215c0.107,0.144-2.65,1.791-6.121,5.532c-3.457,3.733-7.453,9.643-10.436,16.849
				c-1.524,3.58-2.738,7.096-3.637,10.349c-0.945,3.242-1.567,6.223-2.035,8.733c-0.444,2.516-0.698,4.569-0.849,5.991
				C373.305,552.517,373.215,553.306,373.169,553.305z"/>
		</g>
	</g>
</g>
<g>
	<g>
		<rect x="236.909" y="116.438" fill="#FAFAFA" width="282.83" height="297.46"/>
		<g>
			<path fill="#1A2E35" d="M519.739,413.898c-0.002-2.317-0.108-119.426-0.27-297.46l0.27,0.27
				c-82.59,0.012-179.549,0.025-282.802,0.04h-0.028l0.309-0.309c-0.016,109.222-0.031,211.386-0.044,297.46l-0.265-0.265
				C406.778,413.792,517.485,413.896,519.739,413.898c-2.253,0.002-112.96,0.106-282.83,0.266l-0.266,0v-0.266
				c-0.013-86.073-0.028-188.238-0.044-297.46l0-0.31h0.31h0.028c103.253,0.015,200.212,0.028,282.802,0.04h0.27l0,0.27
				C519.847,294.472,519.741,411.582,519.739,413.898z"/>
		</g>
	</g>
	<g>
		<g>
			
				<ellipse transform="matrix(0.9995 0.0325 -0.0325 0.9995 10.8519 -11.2663)" fill="#1A2E35" cx="351.991" cy="328.187" rx="2.972" ry="0.31"/>
		</g>
		<g>
			
				<ellipse transform="matrix(0.9995 0.0325 -0.0325 0.9995 10.864 -11.6452)" fill="#1A2E35" cx="363.875" cy="328.574" rx="2.972" ry="0.31"/>
		</g>
		<g>
			
				<ellipse transform="matrix(0.9995 0.0325 -0.0325 0.9995 10.8898 -12.0385)" fill="#1A2E35" cx="375.758" cy="328.96" rx="2.972" ry="0.31"/>
		</g>
		<g>
			
				<ellipse transform="matrix(0.9995 0.0325 -0.0325 0.9995 10.9084 -12.4243)" fill="#1A2E35" cx="387.642" cy="329.346" rx="2.972" ry="0.31"/>
		</g>
		<g>
			
				<ellipse transform="matrix(0.9995 0.0325 -0.0325 0.9995 10.9273 -12.8102)" fill="#1A2E35" cx="399.525" cy="329.733" rx="2.972" ry="0.31"/>
		</g>
		<g>
			<path fill="#1A2E35" d="M412.938,328.452c0.123,0.023,0.109,0.738-0.016,1.748l-0.029,0.236l-0.258,0.004
				c-0.374,0.006-0.795,0.002-1.238-0.012c-1.64-0.053-2.964-0.235-2.959-0.406c0.006-0.171,1.339-0.266,2.979-0.213
				c0.443,0.014,0.863,0.038,1.236,0.069l-0.287,0.24C412.589,329.11,412.815,328.429,412.938,328.452z"/>
		</g>
		<g>
			<path fill="#1A2E35" d="M415.679,316.894c0.165,0.047-0.036,1.369-0.448,2.953c-0.412,1.585-0.881,2.837-1.047,2.798
				c-0.166-0.039,0.034-1.361,0.448-2.954C415.046,318.1,415.515,316.847,415.679,316.894z"/>
		</g>
		<g>
			<path fill="#1A2E35" d="M419.279,305.57c0.161,0.058-0.132,1.363-0.655,2.915c-0.523,1.552-1.079,2.769-1.242,2.718
				c-0.163-0.051,0.13-1.356,0.655-2.915C418.562,306.729,419.118,305.512,419.279,305.57z"/>
		</g>
		<g>
			<path fill="#1A2E35" d="M423.63,294.51c0.157,0.068-0.223,1.351-0.848,2.865c-0.625,1.515-1.261,2.692-1.42,2.629
				c-0.159-0.062,0.22-1.345,0.848-2.866C422.838,295.619,423.473,294.441,423.63,294.51z"/>
		</g>
		<g>
			<path fill="#1A2E35" d="M428.711,283.766c0.152,0.079-0.313,1.333-1.038,2.802c-0.725,1.469-1.439,2.6-1.594,2.528
				c-0.155-0.073,0.31-1.327,1.039-2.802C427.846,284.819,428.56,283.687,428.711,283.766z"/>
		</g>
		<g>
			<path fill="#1A2E35" d="M434.524,273.401c0.146,0.089-0.406,1.309-1.233,2.723c-0.827,1.415-1.618,2.494-1.767,2.41
				c-0.149-0.083,0.402-1.302,1.233-2.723C433.587,274.391,434.378,273.312,434.524,273.401z"/>
		</g>
		<g>
			<path fill="#1A2E35" d="M440.835,263.321c0.148,0.086-0.435,1.291-1.301,2.691c-0.866,1.401-1.684,2.46-1.828,2.366
				c-0.143-0.093,0.439-1.298,1.301-2.692C439.869,264.294,440.687,263.235,440.835,263.321z"/>
		</g>
		<g>
			<path fill="#1A2E35" d="M446.37,252.798c0.156,0.071-0.31,1.326-1.041,2.802c-0.731,1.477-1.445,2.609-1.596,2.528
				c-0.151-0.08,0.315-1.335,1.041-2.802C445.5,253.859,446.215,252.727,446.37,252.798z"/>
		</g>
		<g>
			<path fill="#1A2E35" d="M450.714,241.731c0.163,0.051-0.155,1.352-0.71,2.904c-0.555,1.553-1.135,2.759-1.293,2.696
				c-0.159-0.063,0.159-1.363,0.71-2.904C449.972,242.887,450.551,241.68,450.714,241.731z"/>
		</g>
		<g>
			<path fill="#1A2E35" d="M453.529,230.184c0.169,0.027,0.038,1.359-0.293,2.975c-0.331,1.617-0.734,2.893-0.9,2.851
				c-0.166-0.042-0.035-1.374,0.293-2.975C452.957,231.434,453.36,230.158,453.529,230.184z"/>
		</g>
		<g>
			<path fill="#1A2E35" d="M454.439,218.338c0.171-0.004,0.266,1.331,0.213,2.981c-0.054,1.651-0.236,2.976-0.406,2.962
				c-0.17-0.015-0.266-1.349-0.213-2.982C454.086,219.668,454.268,218.342,454.439,218.338z"/>
		</g>
		<g>
			<path fill="#1A2E35" d="M453.106,206.539c0.167-0.038,0.519,1.252,0.787,2.882c0.268,1.63,0.346,2.965,0.176,2.983
				c-0.17,0.017-0.523-1.273-0.787-2.882C453.018,207.912,452.939,206.577,453.106,206.539z"/>
		</g>
		<g>
			<path fill="#1A2E35" d="M449.457,195.243c0.158-0.066,0.752,1.131,1.328,2.675c0.576,1.544,0.911,2.839,0.748,2.892
				c-0.163,0.053-0.757-1.144-1.328-2.675C449.635,196.604,449.3,195.31,449.457,195.243z"/>
		</g>
		<g>
			<path fill="#1A2E35" d="M444.114,184.637c0.146-0.09,0.91,1.008,1.707,2.451c0.797,1.444,1.318,2.675,1.165,2.751
				c-0.153,0.076-0.917-1.022-1.707-2.452C444.49,185.958,443.968,184.726,444.114,184.637z"/>
		</g>
		<g>
			<path fill="#1A2E35" d="M437.161,175.015c0.129-0.113,1.061,0.846,2.083,2.141c1.022,1.296,1.736,2.426,1.597,2.525
				s-1.072-0.859-2.083-2.141C437.747,176.258,437.032,175.127,437.161,175.015z"/>
		</g>
		<g>
			<path fill="#1A2E35" d="M428.622,166.764c0.106-0.134,1.196,0.641,2.435,1.731c1.239,1.091,2.146,2.075,2.026,2.197
				c-0.12,0.122-1.21-0.653-2.435-1.732C429.423,167.882,428.516,166.899,428.622,166.764z"/>
		</g>
		<g>
			<path fill="#1A2E35" d="M418.691,160.265c0.078-0.152,1.295,0.403,2.717,1.24c1.423,0.837,2.498,1.631,2.403,1.774
				c-0.095,0.142-1.311-0.413-2.718-1.24C419.689,161.211,418.613,160.417,418.691,160.265z"/>
		</g>
		<g>
			<path fill="#1A2E35" d="M407.721,155.72c0.05-0.164,1.348,0.159,2.9,0.721c1.552,0.562,2.755,1.146,2.689,1.303
				c-0.066,0.157-1.365-0.165-2.9-0.721C408.875,156.468,407.671,155.884,407.721,155.72z"/>
		</g>
		<g>
			<path fill="#1A2E35" d="M396.137,153.104c0.024-0.169,1.357-0.065,2.979,0.234c1.622,0.299,2.905,0.677,2.866,0.843
				c-0.039,0.166-1.372,0.062-2.979-0.235C397.397,153.651,396.114,153.274,396.137,153.104z"/>
		</g>
		<g>
			<path fill="#1A2E35" d="M384.288,152.203c0.001-0.171,1.337-0.253,2.983-0.183c1.647,0.07,2.971,0.265,2.957,0.436
				c-0.014,0.17-1.349,0.252-2.983,0.183C385.611,152.57,384.287,152.374,384.288,152.203z"/>
		</g>
		<g>
			<path fill="#1A2E35" d="M372.43,152.758c-0.022-0.17,1.291-0.421,2.933-0.561c1.642-0.14,2.978-0.115,2.985,0.056
				c0.007,0.171-1.306,0.422-2.933,0.561C373.788,152.953,372.452,152.928,372.43,152.758z"/>
		</g>
		<g>
			<path fill="#1A2E35" d="M360.764,154.994c-0.045-0.165,1.221-0.596,2.828-0.962c1.607-0.366,2.935-0.526,2.966-0.358
				c0.031,0.168-1.235,0.599-2.828,0.962C362.137,154.999,360.809,155.159,360.764,154.994z"/>
		</g>
		<g>
			<path fill="#1A2E35" d="M349.55,158.893c-0.07-0.156,1.118-0.77,2.654-1.371c1.536-0.601,2.825-0.957,2.88-0.795
				c0.055,0.162-1.133,0.776-2.654,1.371C350.909,158.694,349.619,159.049,349.55,158.893z"/>
		</g>
		<g>
			<path fill="#1A2E35" d="M339.13,164.592c-0.096-0.141,0.969-0.95,2.381-1.805c1.412-0.856,2.622-1.427,2.702-1.276
				c0.081,0.151-0.985,0.959-2.381,1.805C340.437,164.162,339.227,164.733,339.13,164.592z"/>
		</g>
		<g>
			<path fill="#1A2E35" d="M329.97,172.136c-0.122-0.119,0.768-1.118,1.989-2.229c1.221-1.111,2.298-1.904,2.406-1.771
				c0.107,0.133-0.783,1.131-1.989,2.229C331.169,171.463,330.092,172.256,329.97,172.136z"/>
		</g>
		<g>
			<path fill="#1A2E35" d="M322.501,181.365c-0.144-0.092,0.528-1.25,1.5-2.584c0.973-1.335,1.869-2.329,2.001-2.22
				c0.132,0.109-0.539,1.266-1.5,2.585C323.541,180.464,322.645,181.458,322.501,181.365z"/>
		</g>
		<g>
			<path fill="#1A2E35" d="M316.968,191.872c-0.145-0.061,0.212-1.358,0.952-2.836c0.717-1.488,1.421-2.628,1.572-2.547
				c0.151,0.081-0.302,1.338-1.011,2.809C317.749,190.758,317.138,191.945,316.968,191.872z"/>
		</g>
		<g>
			<path fill="#1A2E35" d="M312.94,203.056c-0.164-0.047,0.118-1.355,0.63-2.922c0.513-1.567,1.058-2.789,1.219-2.73
				c0.16,0.059-0.122,1.367-0.63,2.922C313.65,201.881,313.104,203.103,312.94,203.056z"/>
		</g>
	</g>
	<path fill="#FF4F5B" d="M376.21,328.139c-3.029-3.595-6.085-7.231-8.22-11.419c-2.135-4.188-3.297-9.041-2.296-13.634
		c1.001-4.593,4.476-8.796,9.071-9.789c3.528-0.762,7.515,0.297,10.607-1.563c2.233-1.344,3.425-3.935,3.943-6.49
		c0.518-2.554,0.491-5.193,0.968-7.755c1.749-9.397,10.535-16.612,20.01-17.87c9.475-1.258,19.178,2.809,26.057,9.445
		c0,0-21.498,39.8-23.707,61.096L376.21,328.139z"/>
	<g>
		<path fill="#1A2E35" d="M390.487,327.52c0,0-0.066-0.336-0.147-0.997c-0.08-0.7-0.191-1.676-0.335-2.935
			c-0.271-2.625-0.665-6.425-1.169-11.3c-0.935-9.818-2.347-24.039-2.902-41.687c-0.117-4.411-0.205-9.036-0.144-13.855
			c0.076-4.817,0.11-9.834,0.641-15.025c0.545-5.165,1.651-10.578,4.302-15.548c2.647-4.888,6.879-9.394,12.566-11.418
			c5.645-2.115,12.614-0.532,16.948,4.085c2.129,2.309,3.482,5.525,3.249,8.779c-0.171,3.246-1.576,6.348-3.649,8.845
			c-2.058,2.54-4.853,4.44-7.856,5.74c-3.01,1.327-6.238,2.095-9.487,2.646c-6.507,1.047-13.193,1.474-19.945,1.35
			c-6.751-0.176-13.419-0.624-19.909-1.934c-3.232-0.69-6.403-1.692-9.325-3.191c-2.928-1.488-5.56-3.529-7.646-6.014
			c-2.082-2.478-3.614-5.448-4.152-8.625c-0.579-3.182,0.069-6.494,1.57-9.252c1.491-2.758,3.907-5.072,6.882-6.079
			c2.975-1.04,6.273-0.547,8.922,0.85c2.676,1.393,4.844,3.542,6.398,5.998c1.557,2.481,2.428,5.247,2.959,7.989
			c1.021,5.526,0.727,10.938,0.812,16.107c0.038,10.368,0.073,20.028,0.106,28.85c0.035,17.609,0.064,31.871,0.084,41.775
			c-0.012,4.9-0.02,8.72-0.027,11.358c-0.014,1.268-0.024,2.25-0.032,2.954c-0.013,0.665-0.044,1.007-0.044,1.007
			s-0.035-0.341-0.056-1.006c-0.016-0.704-0.037-1.686-0.066-2.953c-0.036-2.637-0.089-6.457-0.157-11.357
			c-0.094-9.903-0.228-24.165-0.395-41.773c-0.069-8.822-0.144-18.482-0.225-28.85c-0.1-5.178,0.167-10.578-0.846-15.949
			c-0.521-2.664-1.38-5.339-2.859-7.679c-1.482-2.334-3.558-4.371-6.065-5.669c-2.486-1.301-5.509-1.733-8.215-0.781
			c-2.711,0.92-4.962,3.064-6.356,5.654c-1.404,2.594-2.004,5.677-1.458,8.647c0.509,2.984,1.958,5.801,3.953,8.17
			c4,4.841,10.12,7.568,16.44,8.869c6.367,1.284,13.033,1.735,19.722,1.908c6.699,0.123,13.335-0.301,19.768-1.332
			c3.202-0.541,6.354-1.293,9.259-2.572c2.907-1.258,5.552-3.059,7.504-5.463c1.97-2.367,3.283-5.287,3.442-8.284
			c0.216-3.01-1.012-5.932-2.99-8.099c-4.053-4.328-10.635-5.863-15.965-3.866c-5.408,1.905-9.527,6.236-12.105,10.976
			c-2.584,4.809-3.698,10.119-4.252,15.225c-0.543,5.129-0.598,10.143-0.693,14.947c-0.081,4.808-0.015,9.424,0.08,13.828
			c0.465,17.621,1.77,31.844,2.589,41.671c0.426,4.882,0.757,8.688,0.986,11.316c0.102,1.264,0.181,2.243,0.238,2.945
			C390.487,327.177,390.487,327.52,390.487,327.52z"/>
	</g>
	<g>
		<path fill="#1A2E35" d="M349.038,327.172c0,0,0.023,0.234,0.028,0.688c0.001,0.488,0.001,1.155,0.002,2.007
			c-0.016,1.797-0.039,4.371-0.067,7.636c-0.094,6.627-0.228,16.056-0.389,27.43l-0.054-0.164
			c5.797,7.477,12.546,16.181,19.801,25.538l-0.243-0.119c3.794-0.017,7.777-0.034,11.829-0.052
			c4.323-0.017,8.567-0.033,12.693-0.049l-0.225,0.1c7.035-7.75,13.604-14.986,19.41-21.383l-0.069,0.173
			c0.31-12.083,0.568-22.154,0.75-29.246c0.108-3.498,0.193-6.259,0.253-8.187c0.037-0.916,0.066-1.633,0.087-2.156
			c0.013-0.224,0.024-0.403,0.033-0.552c0.01-0.124,0.018-0.187,0.025-0.186s0.013,0.063,0.017,0.187
			c0.002,0.149,0.005,0.329,0.009,0.553c-0.002,0.523-0.004,1.241-0.007,2.157c-0.025,1.928-0.06,4.69-0.105,8.19
			c-0.128,7.093-0.31,17.166-0.528,29.251l-0.002,0.099l-0.067,0.074c-5.789,6.413-12.338,13.667-19.352,21.436l-0.09,0.1
			l-0.135,0.001c-4.126,0.018-8.37,0.037-12.693,0.056c-4.052,0.016-8.035,0.031-11.829,0.046l-0.152,0.001l-0.092-0.12
			c-7.228-9.378-13.952-18.101-19.728-25.594l-0.056-0.073l0.002-0.091c0.252-11.373,0.461-20.801,0.608-27.426
			c0.09-3.265,0.161-5.837,0.21-7.634c0.032-0.851,0.057-1.517,0.075-2.005C349.007,327.405,349.038,327.172,349.038,327.172z"/>
	</g>
	<g>
		<path fill="#1A2E35" d="M410.443,365.623c-0.039,0.064-0.833-0.356-2.272-1.093c-1.437-0.739-3.546-1.754-6.225-2.82
			c-5.333-2.145-13.128-4.281-21.924-4.435c-8.798-0.162-16.666,1.693-22.073,3.645c-2.715,0.969-4.859,1.907-6.322,2.594
			c-1.464,0.684-2.273,1.076-2.31,1.01c-0.03-0.052,0.717-0.556,2.138-1.35c1.419-0.796,3.538-1.84,6.253-2.903
			c5.403-2.141,13.383-4.141,22.331-3.975c8.945,0.156,16.847,2.44,22.17,4.773c2.676,1.16,4.756,2.279,6.145,3.126
			C409.747,365.041,410.475,365.572,410.443,365.623z"/>
	</g>
	<g>
		<path fill="#1A2E35" d="M410.909,355.837c-0.039,0.064-0.833-0.356-2.272-1.093c-1.437-0.739-3.546-1.754-6.225-2.819
			c-5.333-2.145-13.128-4.281-21.924-4.435c-8.799-0.162-16.667,1.693-22.073,3.646c-2.715,0.968-4.859,1.907-6.322,2.594
			c-1.464,0.684-2.273,1.076-2.31,1.01c-0.03-0.052,0.717-0.556,2.138-1.35c1.419-0.796,3.538-1.84,6.253-2.903
			c5.403-2.141,13.383-4.141,22.331-3.975c8.945,0.156,16.847,2.44,22.17,4.773c2.676,1.16,4.756,2.279,6.145,3.126
			C410.212,355.255,410.94,355.786,410.909,355.837z"/>
	</g>
	<g>
		<path fill="#1A2E35" d="M410.783,346.505c-0.039,0.064-0.833-0.356-2.272-1.093c-1.438-0.739-3.546-1.754-6.225-2.819
			c-5.332-2.145-13.128-4.281-21.924-4.435c-8.799-0.162-16.667,1.693-22.073,3.645c-2.715,0.969-4.859,1.907-6.322,2.594
			c-1.465,0.684-2.273,1.076-2.31,1.01c-0.03-0.052,0.717-0.556,2.138-1.35c1.419-0.796,3.538-1.84,6.253-2.903
			c5.403-2.141,13.383-4.14,22.331-3.975c8.945,0.156,16.847,2.44,22.17,4.774c2.676,1.16,4.755,2.279,6.145,3.126
			C410.086,345.924,410.814,346.455,410.783,346.505z"/>
	</g>
	<g>
		<path fill="#1A2E35" d="M393.484,391.181c-0.108,0.073-0.878-1.493-2.906-3.311c-1.976-1.805-5.438-3.756-9.584-3.833
			c-4.147-0.054-7.67,1.788-9.701,3.53c-2.084,1.753-2.903,3.294-3.008,3.217c-0.031-0.018,0.147-0.41,0.567-1.062
			c0.418-0.654,1.122-1.544,2.153-2.486c2.015-1.878,5.651-3.874,9.998-3.819c4.345,0.082,7.916,2.19,9.871,4.131
			c1.001,0.974,1.677,1.885,2.074,2.552C393.35,390.767,393.515,391.165,393.484,391.181z"/>
	</g>
	<path fill="#ECECEC" d="M261.927,100.03l-45.829,41.512l5.835,2l0.326,6.513c0,0,8.354,0.76,7.329,0.838
		c-0.801,0.062,0.487,7.466,0.487,7.466l47.146-45.793l-7.134-0.427l0.003-6.264l-7.443-0.084L261.927,100.03z"/>
	<polygon fill="#E1E1E1" points="236.909,151.721 273.234,116.438 284.401,116.438 	"/>
	<path fill="#ECECEC" d="M530.494,150.177l-41.247-48.318l-1.987,6.152l-6.472,0.343c0,0-0.755,8.807-0.833,7.726
		c-0.061-0.845-7.418,0.514-7.418,0.514l45.501,49.706l0.424-7.522l6.224,0.004l0.084-7.847L530.494,150.177z"/>
	<polygon fill="#E1E1E1" points="501.323,116.438 519.739,137.601 519.739,129.195 	"/>
</g>
<g>
	<g>
		<g>
			<path fill="#FF4F5B" d="M643.528,563.461l2.026,8.509c0,0,13.917,18.076,18.209,17.192c2.813-0.579-0.644-5.295-5.938-19.025
				l-1.111-5.671L643.528,563.461z"/>
		</g>
		<g>
			<g>
				<path fill="#1A2E35" d="M664.33,586.493c0,0-0.014,0.099-0.11,0.256c-0.095,0.154-0.273,0.377-0.585,0.546
					c-0.305,0.174-0.736,0.297-1.238,0.272c-0.507-0.025-1.053-0.239-1.576-0.577c-1.971-1.499-4.415-3.839-7.014-6.538
					c-2.584-2.712-4.733-5.34-6.22-7.289c-0.741-0.977-1.322-1.781-1.713-2.345c-0.156-0.231-0.302-0.446-0.442-0.654
					c-0.099-0.151-0.147-0.233-0.139-0.239c0.008-0.005,0.071,0.066,0.184,0.207c0.154,0.198,0.313,0.403,0.484,0.623
					c0.521,0.669,1.111,1.428,1.78,2.289c1.524,1.915,3.689,4.515,6.266,7.219c2.582,2.684,5.026,5.061,6.922,6.564
					c0.988,0.723,2.072,0.701,2.658,0.373C664.191,586.89,664.301,586.466,664.33,586.493z"/>
			</g>
		</g>
		<g>
			<g>
				<path fill="#1A2E35" d="M662.359,580.683c-0.008,0.047-0.44-0.04-1.125,0.058c-0.682,0.091-1.607,0.393-2.505,0.95
					c-0.909,0.544-1.557,1.266-1.879,1.876c-0.329,0.607-0.42,1.04-0.466,1.028c-0.026-0.003-0.005-0.455,0.294-1.115
					c0.289-0.661,0.965-1.459,1.908-2.021c0.932-0.578,1.91-0.865,2.628-0.909C661.937,580.497,662.369,580.656,662.359,580.683z"/>
			</g>
		</g>
		<g>
			<g>
				<path fill="#1A2E35" d="M649.184,576.44c-0.048-0.013,0.145-0.61,0.257-1.596c0.123-0.98,0-2.383-0.699-3.728
					c-0.68-1.347-1.782-2.252-2.659-2.685c-0.885-0.446-1.519-0.497-1.508-0.549c0.002-0.016,0.159-0.017,0.44,0.023
					c0.281,0.043,0.684,0.144,1.151,0.352c0.931,0.403,2.109,1.326,2.82,2.736c0.727,1.395,0.824,2.881,0.647,3.877
					c-0.079,0.503-0.189,0.898-0.278,1.166C649.265,576.303,649.201,576.446,649.184,576.44z"/>
			</g>
		</g>
		<g>
			<g>
				<path fill="#1A2E35" d="M644.414,564.905c0.075-0.028,0.51,1.154,0.771,2.666c0.254,1.509,0.527,2.702,0.467,2.725
					c-0.082,0.03-0.483-1.166-0.736-2.675C644.657,566.118,644.347,564.929,644.414,564.905z"/>
			</g>
		</g>
		<g>
			<g>
				<path fill="#1A2E35" d="M658.073,571.339c-0.006,0.081-0.794,0.057-1.725,0.276c-0.933,0.21-1.631,0.578-1.672,0.507
					c-0.042-0.056,0.627-0.551,1.61-0.774C657.267,571.118,658.085,571.27,658.073,571.339z"/>
			</g>
		</g>
		<g>
			<g>
				<path fill="#1A2E35" d="M658.358,572.796c-0.012,0.08-0.671,0.012-1.443,0.201c-0.776,0.179-1.333,0.536-1.38,0.47
					c-0.049-0.051,0.477-0.541,1.317-0.736C657.689,572.528,658.38,572.728,658.358,572.796z"/>
			</g>
		</g>
		<g>
			<g>
				<path fill="#1A2E35" d="M659.469,574.625c-0.024,0.077-0.694-0.137-1.5,0.055c-0.81,0.175-1.321,0.658-1.376,0.599
					c-0.064-0.034,0.413-0.666,1.316-0.865C658.809,574.203,659.513,574.566,659.469,574.625z"/>
			</g>
		</g>
		<g>
			<g>
				<path fill="#1A2E35" d="M657.115,570.728c-0.003,0.017-0.17,0.005-0.466-0.052c-0.296-0.056-0.721-0.159-1.233-0.332
					c-0.51-0.175-1.107-0.424-1.734-0.771c-0.314-0.174-0.633-0.369-0.956-0.594c-0.305-0.239-0.688-0.54-0.695-1.07
					c0.033-0.563,0.66-0.782,1.062-0.664c0.432,0.11,0.717,0.407,0.969,0.649c0.509,0.499,0.937,0.978,1.279,1.394
					c0.341,0.416,0.596,0.77,0.764,1.019c0.167,0.25,0.247,0.396,0.233,0.407c-0.034,0.025-0.432-0.506-1.144-1.3
					c-0.356-0.396-0.794-0.856-1.306-1.339c-0.254-0.239-0.525-0.493-0.855-0.57c-0.315-0.08-0.723,0.089-0.728,0.419
					c-0.012,0.321,0.297,0.629,0.579,0.837c0.307,0.218,0.62,0.417,0.923,0.591c0.606,0.351,1.183,0.613,1.676,0.809
					C656.474,570.547,657.125,570.683,657.115,570.728z"/>
			</g>
		</g>
		<g>
			<g>
				<path fill="#1A2E35" d="M656.384,570.552c-0.019-0.002-0.024-0.153-0.016-0.426c0.009-0.273,0.026-0.668,0.088-1.156
					c0.064-0.486,0.17-1.073,0.437-1.681c0.138-0.302,0.301-0.608,0.548-0.892c0.221-0.256,0.654-0.592,1.113-0.352
					c0.43,0.27,0.422,0.764,0.386,1.109c-0.058,0.368-0.168,0.697-0.305,1c-0.274,0.607-0.653,1.073-0.994,1.429
					c-0.346,0.354-0.662,0.599-0.887,0.756C656.53,570.496,656.393,570.565,656.384,570.552c-0.03-0.038,0.472-0.384,1.115-1.1
					c0.313-0.362,0.66-0.823,0.905-1.4c0.122-0.285,0.221-0.607,0.269-0.931c0.04-0.314-0.004-0.701-0.251-0.837
					c-0.252-0.148-0.57,0.052-0.782,0.292c-0.217,0.242-0.384,0.538-0.518,0.817c-0.264,0.569-0.388,1.132-0.475,1.606
					C656.489,569.952,656.429,570.557,656.384,570.552z"/>
			</g>
		</g>
		<g opacity="0.4">
			<path d="M645.554,571.971l-0.98-4.09c0,0,3.41,0.631,4.295,3.183c0.885,2.552,0.665,4.369,0.665,4.369l7.413,7.983
				c0,0,1.86-3.634,5.228-2.761c0,0,2.65,5.828,2.568,7.289c-0.09,1.605-1.781,1.284-2.384,1.01
				c-0.273-0.124-3.476-1.957-6.638-5.238C651.794,579.642,647.456,574.475,645.554,571.971z"/>
		</g>
	</g>
	<g>
		<g>
			<g>
				<g>
					<g>
						<path fill="#FF4F5B" d="M574.343,567.762l-0.065-11.349l21.258-0.258l0.271,16.602l-1.317,0.101
							c-5.862,0.397-29.833,1.604-33.769,0.463C556.331,572.048,574.343,567.762,574.343,567.762z"/>
					</g>
				</g>
				<g opacity="0.4">
					<g>
						<path d="M588.097,572.684c0.281-1.78,1.249-3.442,2.658-4.565c1.409-1.123,3.152-1.728,4.95-1.605l0.076,5.941
							L588.097,572.684z"/>
					</g>
				</g>
			</g>
			<g>
				<g>
					<path opacity="0.4" d="M565.546,570.171c0,0-6.308,1.903-5.506,2.936c0.802,1.033,25.072,0.724,35.766-0.349l-0.04-0.475
						l-28.307,0.602C567.46,572.884,566.784,570.207,565.546,570.171z"/>
				</g>
			</g>
			<g>
				<g>
					<g>
						<path fill="#1A2E35" d="M596.1,572.266c0,0.009-0.125,0.024-0.365,0.044c-0.315,0.023-0.66,0.048-1.049,0.077
							c-1.049,0.059-2.339,0.131-3.861,0.215c-3.262,0.159-7.771,0.319-12.753,0.386c-4.984,0.066-9.496,0.028-12.761-0.043
							c-1.524-0.044-2.815-0.081-3.866-0.111c-0.39-0.018-0.735-0.034-1.051-0.049c-0.24-0.014-0.366-0.026-0.366-0.034
							c0-0.009,0.127-0.015,0.367-0.018c0.316,0,0.661,0,1.052,0c1.05,0.008,2.342,0.018,3.866,0.029
							c3.264,0.024,7.774,0.034,12.755-0.033c4.98-0.068,9.487-0.199,12.749-0.311c1.523-0.053,2.814-0.097,3.864-0.134
							c0.39-0.011,0.736-0.02,1.051-0.028C595.973,572.254,596.099,572.257,596.1,572.266z"/>
					</g>
				</g>
			</g>
			<g>
				<g>
					<g>
						<path fill="#1A2E35" d="M567.469,573.215c-0.078,0.011-0.151-0.911-0.745-1.835c-0.578-0.935-1.379-1.396-1.336-1.462
							c0.015-0.064,0.931,0.325,1.554,1.325C567.577,572.235,567.534,573.229,567.469,573.215z"/>
					</g>
				</g>
			</g>
			<g>
				<g>
					<g>
						
							<ellipse transform="matrix(0.5466 0.8374 -0.8374 0.5466 736.4258 -221.9094)" fill="#1A2E35" cx="573.128" cy="569.075" rx="1.048" ry="0.129"/>
					</g>
				</g>
			</g>
			<g>
				<g>
					<g>
						
							<ellipse transform="matrix(0.7523 0.6588 -0.6588 0.7523 516.8184 -237.8468)" fill="#1A2E35" cx="574.74" cy="568.433" rx="0.892" ry="0.129"/>
					</g>
				</g>
			</g>
			<g>
				<g>
					<g>
						
							<ellipse transform="matrix(0.9997 -0.024 0.024 0.9997 -13.4318 13.9602)" fill="#1A2E35" cx="575.363" cy="567.027" rx="1.111" ry="0.129"/>
					</g>
				</g>
			</g>
			<g>
				<g>
					<g>
						<path fill="#1A2E35" d="M576.829,565.581c0.025,0.063-0.513,0.314-1.233,0.376c-0.72,0.065-1.293-0.088-1.28-0.154
							c0.011-0.074,0.574-0.039,1.257-0.102C576.257,565.642,576.805,565.51,576.829,565.581z"/>
					</g>
				</g>
			</g>
			<g>
				<g>
					<g>
						<path fill="#1A2E35" d="M572.957,568.107c0.002,0.029-0.522,0.1-1.366,0.009c-0.421-0.045-0.92-0.138-1.458-0.302
							c-0.268-0.091-0.547-0.159-0.837-0.332c-0.136-0.089-0.288-0.213-0.344-0.42c-0.059-0.204,0.048-0.435,0.2-0.549
							c1.297-0.693,2.614,0.025,3.107,0.693c0.272,0.341,0.398,0.675,0.457,0.906c0.058,0.233,0.055,0.366,0.04,0.369
							c-0.048,0.018-0.099-0.537-0.637-1.157c-0.265-0.304-0.665-0.598-1.177-0.743c-0.484-0.137-1.171-0.167-1.626,0.132
							c-0.215,0.163-0.127,0.417,0.116,0.558c0.227,0.142,0.518,0.227,0.772,0.318c0.519,0.171,1.002,0.281,1.411,0.348
							C572.435,568.071,572.956,568.065,572.957,568.107z"/>
					</g>
				</g>
			</g>
			<g>
				<g>
					<g>
						<path fill="#1A2E35" d="M572.604,568.18c-0.019,0.015-0.225-0.331-0.17-0.946c0.029-0.302,0.136-0.661,0.36-1.003
							c0.237-0.306,0.542-0.728,1.128-0.711c0.317,0.037,0.476,0.395,0.429,0.625c-0.022,0.24-0.127,0.446-0.224,0.613
							c-0.199,0.344-0.425,0.623-0.635,0.835c-0.423,0.424-0.759,0.588-0.775,0.563c-0.024-0.033,0.269-0.249,0.64-0.686
							c0.184-0.219,0.384-0.496,0.561-0.827c0.184-0.291,0.306-0.811-0.038-0.869c-0.342-0.029-0.687,0.316-0.892,0.591
							c-0.211,0.298-0.326,0.618-0.375,0.893C572.517,567.816,572.649,568.169,572.604,568.18z"/>
					</g>
				</g>
			</g>
			<g>
				<g>
					<g>
						<path fill="#1A2E35" d="M595.592,566.455c-0.004,0.048-0.61-0.05-1.569,0.075c-0.95,0.118-2.269,0.525-3.408,1.456
							c-1.138,0.933-1.799,2.145-2.103,3.053c-0.313,0.915-0.336,1.528-0.385,1.523c-0.016-0.001-0.025-0.154-0.006-0.429
							c0.019-0.275,0.079-0.673,0.217-1.149c0.267-0.947,0.926-2.224,2.113-3.197c1.188-0.97,2.571-1.364,3.552-1.438
							c0.494-0.041,0.896-0.022,1.17,0.015C595.446,566.4,595.594,566.439,595.592,566.455z"/>
					</g>
				</g>
			</g>
			<g>
				<g>
					<g>
						
							<ellipse transform="matrix(-0.0254 -0.9997 0.9997 -0.0254 46.6315 1169.4703)" fill="#1A2E35" cx="593.387" cy="562.004" rx="4.369" ry="0.129"/>
					</g>
				</g>
			</g>
			<g>
				<g>
					<g>
						<path fill="#1A2E35" d="M585.395,570.646c0.01,0.066-1.372,0.312-3.099,0.348c-1.728,0.041-3.119-0.143-3.112-0.209
							c0.006-0.075,1.395-0.008,3.106-0.048C584.001,570.7,585.386,570.571,585.395,570.646z"/>
					</g>
				</g>
			</g>
			<g>
				<g>
					<g>
						<path fill="#1A2E35" d="M589.561,570.586c0.052,0.051-0.11,0.295-0.247,0.616c-0.142,0.319-0.212,0.604-0.285,0.6
							c-0.069,0-0.114-0.334,0.049-0.703C589.238,570.729,589.515,570.535,589.561,570.586z"/>
					</g>
				</g>
			</g>
			<g>
				<g>
					<g>
						
							<ellipse transform="matrix(0.6932 -0.7208 0.7208 0.6932 -228.8877 600.3477)" fill="#1A2E35" cx="590.713" cy="569.021" rx="0.567" ry="0.129"/>
					</g>
				</g>
			</g>
			<g>
				<g>
					<g>
						<path fill="#1A2E35" d="M593.342,567.691c-0.014,0.072-0.297,0.073-0.607,0.187c-0.313,0.106-0.534,0.283-0.59,0.235
							c-0.058-0.038,0.117-0.343,0.504-0.478C593.035,567.498,593.362,567.625,593.342,567.691z"/>
					</g>
				</g>
			</g>
			<g>
				<g>
					<g>
						
							<ellipse transform="matrix(0.9277 -0.3732 0.3732 0.9277 -168.7894 262.9161)" fill="#1A2E35" cx="594.618" cy="567.377" rx="0.343" ry="0.129"/>
					</g>
				</g>
			</g>
		</g>
	</g>
	<g>
		<g>
			<polyline fill="#375A64" points="562.894,349.561 569.8,562.871 602.903,563.567 597.405,378.969 634.639,564.977 
				666.112,564.977 624.078,342.375 			"/>
		</g>
		<g>
			<g>
				<g>
					<polygon fill="#1A2E35" points="633.001,561.982 633.759,565.241 666.112,565.675 665.621,560.579 					"/>
				</g>
				<g>
					<g>
						<g>
							
								<ellipse transform="matrix(-0.0515 -0.9987 0.9987 -0.0515 66.0986 1188.0344)" fill="#1A2E35" cx="597.241" cy="562.627" rx="0.985" ry="0.342"/>
						</g>
					</g>
					<g>
						<g>
							
								<ellipse transform="matrix(-0.037 -0.9993 0.9993 -0.037 63.7316 1172.7335)" fill="#1A2E35" cx="596.939" cy="555.658" rx="1.999" ry="0.342"/>
						</g>
					</g>
					<g>
						<g>
							
								<ellipse transform="matrix(-0.0279 -0.9996 0.9996 -0.0279 65.8777 1159.402)" fill="#1A2E35" cx="596.683" cy="547.669" rx="1.998" ry="0.342"/>
						</g>
					</g>
					<g>
						<g>
							
								<ellipse transform="matrix(-0.024 -0.9997 0.9997 -0.024 71.2897 1148.95)" fill="#1A2E35" cx="596.478" cy="539.677" rx="1.999" ry="0.342"/>
						</g>
					</g>
					<g>
						<g>
							
								<ellipse transform="matrix(-0.0245 -0.9997 0.9997 -0.0245 79.3518 1140.7952)" fill="#1A2E35" cx="596.286" cy="531.681" rx="2" ry="0.342"/>
						</g>
					</g>
					<g>
						<g>
							
								<ellipse transform="matrix(-0.0299 -0.9996 0.9996 -0.0299 90.4628 1135.1597)" fill="#1A2E35" cx="596.071" cy="523.682" rx="2" ry="0.342"/>
						</g>
					</g>
					<g>
						<g>
							
								<ellipse transform="matrix(-0.0421 -0.9991 0.9991 -0.0421 105.6295 1132.6532)" fill="#1A2E35" cx="595.786" cy="515.69" rx="1.999" ry="0.344"/>
						</g>
					</g>
					<g>
						<g>
							
								<ellipse transform="matrix(-0.0396 -0.9992 0.9992 -0.0396 111.7056 1122.7745)" fill="#1A2E35" cx="595.456" cy="507.702" rx="1.999" ry="0.342"/>
						</g>
					</g>
					<g>
						<g>
							
								<ellipse transform="matrix(-0.0351 -0.9994 0.9994 -0.0351 116.6404 1112.0408)" fill="#1A2E35" cx="595.158" cy="499.712" rx="1.999" ry="0.342"/>
						</g>
					</g>
					<g>
						<g>
							
								<ellipse transform="matrix(-0.0304 -0.9995 0.9995 -0.0304 121.5109 1101.3073)" fill="#1A2E35" cx="594.895" cy="491.72" rx="2" ry="0.342"/>
						</g>
					</g>
					<g>
						<g>
							
								<ellipse transform="matrix(-0.0256 -0.9997 0.9997 -0.0256 126.3261 1090.5955)" fill="#1A2E35" cx="594.671" cy="483.732" rx="1.999" ry="0.342"/>
						</g>
					</g>
					<g>
						<g>
							
								<ellipse transform="matrix(-0.0206 -0.9998 0.9998 -0.0206 131.1021 1079.9053)" fill="#1A2E35" cx="594.487" cy="475.739" rx="1.999" ry="0.342"/>
						</g>
					</g>
					<g>
						<g>
							
								<ellipse transform="matrix(-0.0155 -0.9999 0.9999 -0.0155 135.8452 1069.2515)" fill="#1A2E35" cx="594.342" cy="467.746" rx="1.999" ry="0.342"/>
						</g>
					</g>
					<g>
						<g>
							
								<ellipse transform="matrix(-0.0101 -0.9999 0.9999 -0.0101 140.5389 1058.6241)" fill="#1A2E35" cx="594.24" cy="459.752" rx="1.999" ry="0.342"/>
						</g>
					</g>
					<g>
						<g>
							
								<ellipse transform="matrix(-0.0048 -1 1 -0.0048 145.3063 1048.1188)" fill="#1A2E35" cx="594.18" cy="451.757" rx="1.999" ry="0.342"/>
						</g>
					</g>
					<g>
						<g>
							<ellipse fill="#1A2E35" cx="594.163" cy="443.763" rx="0.342" ry="1.999"/>
						</g>
					</g>
					<g>
						<g>
							
								<ellipse transform="matrix(0.0061 -1 1 0.0061 154.8065 1027.2897)" fill="#1A2E35" cx="594.19" cy="435.768" rx="1.999" ry="0.342"/>
						</g>
					</g>
					<g>
						<g>
							
								<ellipse transform="matrix(0.0116 -0.9999 0.9999 0.0116 159.6398 1017.0449)" fill="#1A2E35" cx="594.26" cy="427.774" rx="1.999" ry="0.342"/>
						</g>
					</g>
					<g>
						<g>
							
								<ellipse transform="matrix(0.017 -0.9999 0.9999 0.017 164.5536 1006.9354)" fill="#1A2E35" cx="594.374" cy="419.781" rx="1.997" ry="0.342"/>
						</g>
					</g>
					<g>
						<g>
							
								<ellipse transform="matrix(0.0216 -0.9998 0.9998 0.0216 170.0247 997.3022)" fill="#1A2E35" cx="594.529" cy="411.786" rx="2" ry="0.342"/>
						</g>
					</g>
					<g>
						<g>
							
								<ellipse transform="matrix(0.0347 -0.9994 0.9994 0.0347 170.5466 984.1502)" fill="#1A2E35" cx="594.748" cy="403.787" rx="2.001" ry="0.342"/>
						</g>
					</g>
					<g>
						<g>
							
								<ellipse transform="matrix(0.0601 -0.9982 0.9982 0.0601 164.251 966.0345)" fill="#1A2E35" cx="595.121" cy="395.795" rx="2" ry="0.342"/>
						</g>
					</g>
					<g>
						<g>
							
								<ellipse transform="matrix(0.0979 -0.9952 0.9952 0.0979 151.4885 942.7601)" fill="#1A2E35" cx="595.747" cy="387.823" rx="1.999" ry="0.342"/>
						</g>
					</g>
					<g>
						<g>
							
								<ellipse transform="matrix(0.1404 -0.9901 0.9901 0.1404 135.6579 918.0491)" fill="#1A2E35" cx="596.564" cy="380.895" rx="0.985" ry="0.342"/>
						</g>
					</g>
				</g>
				<g>
					<polygon fill="#1A2E35" points="568.935,563.943 603.943,564.514 603.668,558.681 568.935,558.865 					"/>
				</g>
			</g>
			<g>
				<g>
					<g>
						
							<ellipse transform="matrix(-0.1603 -0.9871 0.9871 -0.1603 212.9234 1300.6395)" fill="#1A2E35" cx="659.673" cy="559.755" rx="0.986" ry="0.342"/>
					</g>
				</g>
				<g>
					<g>
						
							<ellipse transform="matrix(-0.1617 -0.9868 0.9868 -0.1617 219.2948 1292.359)" fill="#1A2E35" cx="658.576" cy="553.034" rx="1.941" ry="0.342"/>
					</g>
				</g>
				<g>
					<g>
						
							<ellipse transform="matrix(-0.1633 -0.9866 0.9866 -0.1633 226.5783 1282.9072)" fill="#1A2E35" cx="657.314" cy="545.372" rx="1.941" ry="0.342"/>
					</g>
				</g>
				<g>
					<g>
						
							<ellipse transform="matrix(-0.1648 -0.9863 0.9863 -0.1648 233.7799 1273.3864)" fill="#1A2E35" cx="656.041" cy="537.711" rx="1.941" ry="0.342"/>
					</g>
				</g>
				<g>
					<g>
						
							<ellipse transform="matrix(-0.1663 -0.9861 0.9861 -0.1663 240.992 1263.8503)" fill="#1A2E35" cx="654.755" cy="530.052" rx="1.941" ry="0.342"/>
					</g>
				</g>
				<g>
					<g>
						
							<ellipse transform="matrix(-0.1679 -0.9858 0.9858 -0.1679 248.1626 1254.27)" fill="#1A2E35" cx="653.457" cy="522.396" rx="1.941" ry="0.342"/>
					</g>
				</g>
				<g>
					<g>
						
							<ellipse transform="matrix(-0.1694 -0.9855 0.9855 -0.1694 255.3397 1244.6716)" fill="#1A2E35" cx="652.148" cy="514.741" rx="1.941" ry="0.342"/>
					</g>
				</g>
				<g>
					<g>
						
							<ellipse transform="matrix(-0.1709 -0.9853 0.9853 -0.1709 262.4605 1235.021)" fill="#1A2E35" cx="650.826" cy="507.089" rx="1.942" ry="0.342"/>
					</g>
				</g>
				<g>
					<g>
						
							<ellipse transform="matrix(-0.1725 -0.985 0.985 -0.1725 269.5695 1225.3427)" fill="#1A2E35" cx="649.493" cy="499.438" rx="1.941" ry="0.342"/>
					</g>
				</g>
				<g>
					<g>
						
							<ellipse transform="matrix(-0.174 -0.9847 0.9847 -0.174 276.6472 1215.6268)" fill="#1A2E35" cx="648.147" cy="491.79" rx="1.941" ry="0.342"/>
					</g>
				</g>
				<g>
					<g>
						
							<ellipse transform="matrix(-0.1755 -0.9845 0.9845 -0.1755 283.7017 1205.8771)" fill="#1A2E35" cx="646.79" cy="484.144" rx="1.942" ry="0.342"/>
					</g>
				</g>
				<g>
					<g>
						
							<ellipse transform="matrix(-0.1771 -0.9842 0.9842 -0.1771 290.7621 1196.1082)" fill="#1A2E35" cx="645.421" cy="476.499" rx="1.941" ry="0.342"/>
					</g>
				</g>
				<g>
					<g>
						
							<ellipse transform="matrix(-0.1786 -0.9839 0.9839 -0.1786 297.7514 1186.2821)" fill="#1A2E35" cx="644.039" cy="468.857" rx="1.941" ry="0.342"/>
					</g>
				</g>
				<g>
					<g>
						
							<ellipse transform="matrix(-0.1801 -0.9836 0.9836 -0.1801 304.7425 1176.4354)" fill="#1A2E35" cx="642.646" cy="461.217" rx="1.941" ry="0.342"/>
					</g>
				</g>
				<g>
					<g>
						
							<ellipse transform="matrix(-0.1817 -0.9834 0.9834 -0.1817 311.7284 1166.5637)" fill="#1A2E35" cx="641.241" cy="453.58" rx="1.941" ry="0.342"/>
					</g>
				</g>
				<g>
					<g>
						
							<ellipse transform="matrix(-0.1832 -0.9831 0.9831 -0.1832 318.6702 1156.649)" fill="#1A2E35" cx="639.824" cy="445.944" rx="1.941" ry="0.342"/>
					</g>
				</g>
				<g>
					<g>
						
							<ellipse transform="matrix(-0.1848 -0.9828 0.9828 -0.1848 325.6063 1146.7092)" fill="#1A2E35" cx="638.395" cy="438.311" rx="1.941" ry="0.342"/>
					</g>
				</g>
				<g>
					<g>
						
							<ellipse transform="matrix(-0.1863 -0.9825 0.9825 -0.1863 332.4728 1136.7163)" fill="#1A2E35" cx="636.954" cy="430.68" rx="1.941" ry="0.342"/>
					</g>
				</g>
				<g>
					<g>
						
							<ellipse transform="matrix(-0.1878 -0.9822 0.9822 -0.1878 339.3481 1126.7046)" fill="#1A2E35" cx="635.501" cy="423.051" rx="1.941" ry="0.342"/>
					</g>
				</g>
				<g>
					<g>
						
							<ellipse transform="matrix(-0.1894 -0.9819 0.9819 -0.1894 346.2076 1116.6632)" fill="#1A2E35" cx="634.036" cy="415.425" rx="1.941" ry="0.342"/>
					</g>
				</g>
				<g>
					<g>
						
							<ellipse transform="matrix(-0.1909 -0.9816 0.9816 -0.1909 353.0281 1106.5828)" fill="#1A2E35" cx="632.56" cy="407.801" rx="1.941" ry="0.342"/>
					</g>
				</g>
				<g>
					<g>
						
							<ellipse transform="matrix(-0.1925 -0.9813 0.9813 -0.1925 359.8239 1096.469)" fill="#1A2E35" cx="631.071" cy="400.179" rx="1.941" ry="0.342"/>
					</g>
				</g>
				<g>
					<g>
						
							<ellipse transform="matrix(-0.1939 -0.981 0.981 -0.1939 366.5696 1086.3129)" fill="#1A2E35" cx="629.571" cy="392.56" rx="1.941" ry="0.342"/>
					</g>
				</g>
				<g>
					<g>
						
							<ellipse transform="matrix(-0.1955 -0.9807 0.9807 -0.1955 373.3402 1076.1427)" fill="#1A2E35" cx="628.059" cy="384.943" rx="1.941" ry="0.342"/>
					</g>
				</g>
				<g>
					<g>
						
							<ellipse transform="matrix(-0.197 -0.9804 0.9804 -0.197 380.0581 1065.9291)" fill="#1A2E35" cx="626.535" cy="377.328" rx="1.941" ry="0.342"/>
					</g>
				</g>
				<g>
					<g>
						
							<ellipse transform="matrix(-0.1986 -0.9801 0.9801 -0.1986 386.7558 1055.6848)" fill="#1A2E35" cx="624.999" cy="369.716" rx="1.941" ry="0.342"/>
					</g>
				</g>
				<g>
					<g>
						
							<ellipse transform="matrix(-0.1999 -0.9798 0.9798 -0.1999 392.5864 1046.6648)" fill="#1A2E35" cx="623.642" cy="363.041" rx="0.986" ry="0.342"/>
					</g>
				</g>
			</g>
		</g>
	</g>
	<path fill="#FFBF9D" d="M495.325,309.475c0,0,20.092,26.405,32.374,20.455c12.282-5.95,34.312-26.192,34.312-26.192l-15.446-15.527
		l-20.495,22.864L499.884,298.4L495.325,309.475z"/>
	<g>
		<g>
			<g>
				<g>
					<g>
						<g>
							<g>
								<g>
									<path fill="#FFBF9D" d="M606.546,259.664l-20.437-1.632c-0.127-2.386,0.043-11.618,0.043-11.618s-8.503-1.322-8.608-9.824
										c-0.105-8.502,1.369-28.024,1.369-28.024l0,0c9.842-4.23,21.201-2.802,29.69,3.732l1.26,0.97L606.546,259.664z"/>
								</g>
							</g>
							<g>
								<g>
									<g>
										<circle fill="#1A2E35" cx="580.04" cy="222.263" r="1.235"/>
									</g>
								</g>
								<g>
									<g>
										<g>
											<path fill="#1A2E35" d="M578.808,221.236c0.133,0.147,0.968-0.495,2.139-0.501c1.171-0.023,2.021,0.599,2.15,0.449
												c0.063-0.067-0.069-0.332-0.44-0.614c-0.364-0.28-0.989-0.55-1.719-0.542c-0.73,0.009-1.348,0.294-1.705,0.583
												C578.869,220.903,578.743,221.171,578.808,221.236z"/>
										</g>
									</g>
								</g>
							</g>
							<g>
								<g>
									<g>
										<circle fill="#1A2E35" cx="592.945" cy="223.309" r="1.235"/>
									</g>
								</g>
								<g>
									<g>
										<g>
											<path fill="#1A2E35" d="M591.526,222.268c0.133,0.147,0.968-0.495,2.139-0.501c1.171-0.023,2.021,0.599,2.15,0.449
												c0.063-0.067-0.069-0.332-0.44-0.614c-0.364-0.28-0.989-0.55-1.719-0.542c-0.73,0.009-1.348,0.294-1.704,0.583
												C591.588,221.934,591.462,222.203,591.526,222.268z"/>
										</g>
									</g>
								</g>
							</g>
							<g>
								<g>
									<g>
										<path fill="#1A2E35" d="M586.831,231.928c0.008-0.092-0.716-0.238-1.894-0.401c-0.306-0.033-0.547-0.103-0.569-0.267
											c-0.055-0.185,0.064-0.512,0.219-0.877c0.301-0.774,0.606-1.558,0.926-2.379c1.279-3.39,2.177-6.19,2.004-6.255
											c-0.172-0.065-1.348,2.63-2.628,6.02c-0.303,0.827-0.591,1.617-0.877,2.398c-0.113,0.354-0.325,0.768-0.168,1.273
											c0.085,0.253,0.326,0.436,0.528,0.489c0.203,0.061,0.376,0.061,0.522,0.068
											C586.085,232.039,586.823,232.02,586.831,231.928z"/>
									</g>
								</g>
							</g>
							<g>
								<g>
									<path fill="#FFFFFF" d="M590.635,233.221c-1.534,0.611-3.365,1.376-5.742,1.668c0,0,1.367,2.185,3.818,1.288
										C591.256,235.247,590.635,233.221,590.635,233.221z"/>
								</g>
							</g>
							<g>
								<g>
									<path fill="#FF9A6C" d="M586.138,246.292c0,0,5.373,0.437,11.084-3.15c0,0-2.62,6.119-11.104,5.353L586.138,246.292z"/>
								</g>
							</g>
						</g>
					</g>
				</g>
				<g>
					<path fill="#1A2E35" d="M578.737,210.705c0,0,4.974,2.879,11.936,0.025c4.568-1.873,9.784-2.567,10.85-1.597
						c1.066,0.97,0.97,5.527,5.236,7.175c0,0-0.941,8.639,2.536,8.586c3.476-0.053,2.311-13.628,2.311-13.628l-8.143-4.751
						l-9.091-2.424l-8.778,0.582l-6.858,1.343V210.705z"/>
				</g>
				<g>
					<g>
						<g>
							<path fill="#FFBF9D" d="M608.815,222.074c0.145-0.063,5.842-1.728,5.656,4.084c-0.186,5.812-5.983,4.427-5.988,4.26
								C608.478,230.252,608.815,222.074,608.815,222.074z"/>
						</g>
					</g>
					<g>
						<g>
							<g>
								<path fill="#FF9A6C" d="M610.329,228.274c0.026-0.018,0.099,0.074,0.268,0.158c0.165,0.081,0.45,0.144,0.756,0.04
									c0.621-0.206,1.17-1.164,1.231-2.211c0.032-0.529-0.063-1.036-0.237-1.459c-0.164-0.431-0.429-0.737-0.737-0.801
									c-0.305-0.081-0.53,0.097-0.606,0.258c-0.083,0.16-0.05,0.277-0.081,0.286c-0.017,0.014-0.122-0.101-0.067-0.34
									c0.028-0.115,0.1-0.25,0.24-0.357c0.143-0.109,0.35-0.16,0.565-0.13c0.447,0.045,0.837,0.471,1.029,0.935
									c0.216,0.467,0.335,1.038,0.299,1.631c-0.074,1.17-0.709,2.247-1.557,2.463c-0.412,0.093-0.75-0.041-0.921-0.183
									C610.335,228.415,610.309,228.283,610.329,228.274z"/>
							</g>
						</g>
					</g>
				</g>
				<g>
					<g>
						<path fill="#1A2E35" d="M584.502,219.326c-0.19,0.339-1.303,0.063-2.634,0.018c-1.331-0.074-2.463,0.101-2.622-0.253
							c-0.173-0.325,0.991-1.194,2.683-1.115C583.621,218.049,584.703,219.018,584.502,219.326z"/>
					</g>
				</g>
				<g>
					<g>
						<path fill="#1A2E35" d="M597.545,219.326c-0.19,0.339-1.303,0.063-2.634,0.018c-1.33-0.074-2.464,0.101-2.622-0.253
							c-0.173-0.325,0.991-1.194,2.683-1.115C596.664,218.049,597.746,219.018,597.545,219.326z"/>
					</g>
				</g>
			</g>
		</g>
		<path fill="#1A2E35" d="M603.657,210.346c1.011,1.402,2.038,2.821,3.377,3.915c1.339,1.094,3.048,1.843,4.768,1.674
			c1.72-0.168,3.384-1.423,3.675-3.127c0.29-1.704-1.167-3.592-2.889-3.442c1.134,0.168,2.251-0.996,2.037-2.122
			s-1.681-1.798-2.674-1.225c1.49-0.083,1.953-2.371,0.913-3.441c-1.039-1.07-2.764-1.089-4.207-0.711
			c-1.443,0.378-2.815,1.076-4.302,1.2c-2.332,0.194-4.538-1.053-6.393-2.479c-1.855-1.426-3.577-3.099-5.734-4.007
			c-2.647-1.115-5.685-0.945-8.454-0.184c-2.299,0.632-4.535,1.689-6.198,3.397c-1.663,1.708-2.69,4.132-2.354,6.492
			c0.336,2.36,2.21,4.527,4.573,4.843c0,0,5.245,1.225,9.986-1.424c4.741-2.649,13.805-1.042,13.805-1.042L603.657,210.346z"/>
		<g>
			<path fill="#375A64" d="M612.522,204.701c0.009,0.019-0.117,0.095-0.365,0.222c-0.246,0.133-0.622,0.298-1.114,0.497
				c-0.985,0.389-2.464,0.85-4.352,1.109c-1.884,0.255-4.187,0.277-6.667-0.228c-2.494-0.492-5.027-1.644-7.686-2.673
				c-2.651-1.03-5.329-1.718-7.753-1.445c-2.417,0.238-4.454,1.42-5.478,2.922c-1.037,1.517-1.144,3.115-0.974,4.11
				c0.171,1.021,0.533,1.509,0.474,1.539c-0.018,0.011-0.107-0.105-0.262-0.341c-0.132-0.246-0.332-0.621-0.448-1.151
				c-0.252-1.032-0.219-2.735,0.846-4.4c1.06-1.661,3.228-2.963,5.776-3.245c2.567-0.321,5.357,0.392,8.039,1.433
				c2.693,1.043,5.176,2.188,7.584,2.693c2.402,0.52,4.646,0.546,6.497,0.351C610.363,205.685,612.481,204.571,612.522,204.701z"/>
		</g>
		<g>
			<path fill="#375A64" d="M613.948,213.905c0.06,0.041-0.2,0.579-0.911,1.21c-0.698,0.627-1.905,1.303-3.378,1.428
				c-1.473,0.123-2.777-0.342-3.569-0.844c-0.807-0.504-1.153-0.99-1.101-1.041c0.064-0.072,0.507,0.284,1.308,0.655
				c0.792,0.373,1.988,0.722,3.31,0.612c1.321-0.112,2.442-0.656,3.161-1.156C613.497,214.27,613.873,213.845,613.948,213.905z"/>
		</g>
		<g>
			<path fill="#375A64" d="M612.527,210.837c0.138,0.088-0.438,1.074-1.649,1.692c-1.207,0.628-2.344,0.525-2.335,0.362
				c-0.011-0.179,0.984-0.351,2.051-0.913C611.67,211.435,612.387,210.724,612.527,210.837z"/>
		</g>
		<g>
			<path fill="#1A2E35" d="M575.421,214.166c-0.078,0.009-0.204-0.295-0.18-0.815c0.02-0.512,0.23-1.243,0.758-1.863
				c0.528-0.619,1.217-0.942,1.719-1.043c0.51-0.106,0.829-0.03,0.833,0.048c0.028,0.172-1.195,0.348-2.081,1.397
				C575.575,212.931,575.596,214.166,575.421,214.166z"/>
		</g>
		<g>
			<path fill="#375A64" d="M573.514,205.55c0.179-0.049,0.615,1.554,1.953,3.001c1.311,1.472,2.864,2.061,2.798,2.234
				c-0.014,0.161-1.811-0.207-3.257-1.818C573.545,207.372,573.353,205.548,573.514,205.55z"/>
		</g>
	</g>
	<g>
		<path fill="#FF4F5B" d="M629.684,363.635l-68.343-3.723c-0.169-7.046,3.194-60.479,3.194-60.479l-3.534,6.632l-18.372-16.386
			l16.053-21.696c5.097-6.889,12.774-11.42,21.265-12.577c2.493-0.34,4.388-0.504,5.618-0.659
			c7.264,2.236,14.527,2.232,21.791-0.013l0,0c3.368,0.143,6.279,0.737,9.022,1.729c5.647,2.042,10.366,5.137,14.397,9.32
			l0.002-0.005l19.225,32.31l-23.314,14.665l-3.363-10.163L629.684,363.635z"/>
		<g>
			<path fill="#1A2E35" d="M621.986,261.027c0.03,0.059-0.57,0.199-1.263,0.947c-0.708,0.728-1.325,2.138-1.308,3.976
				c0.139,3.681,0.563,8.83,1.033,14.476c0.488,5.656,1.028,10.766,1.426,14.465c0.186,1.757,0.342,3.227,0.465,4.382
				c0.103,1.036,0.14,1.612,0.098,1.617c-0.042,0.006-0.16-0.559-0.336-1.585c-0.175-1.027-0.404-2.516-0.66-4.361
				c-0.51-3.689-1.12-8.8-1.608-14.465c-0.47-5.67-0.826-10.783-0.854-14.542c0.034-1.907,0.766-3.421,1.573-4.132
				c0.387-0.374,0.764-0.57,1.021-0.675C621.832,261.025,621.982,261.012,621.986,261.027z"/>
		</g>
		<g>
			<path fill="#1A2E35" d="M564.726,274.581c0.086,0.004,0.125,1.483,0.12,3.87c-0.005,2.387-0.056,5.681-0.149,9.319
				c-0.094,3.639-0.213,6.932-0.331,9.316c-0.117,2.384-0.233,3.859-0.318,3.858c-0.086,0-0.125-1.476-0.12-3.863
				c0.005-2.387,0.056-5.685,0.149-9.327c0.094-3.641,0.213-6.937,0.331-9.321C564.526,276.049,564.641,274.577,564.726,274.581z"/>
		</g>
		<g>
			<path fill="#FAFAFA" d="M607.86,280.168c0.026,0.034-0.371,0.404-1.113,1.043c-0.839,0.718-1.895,1.621-3.151,2.695
				c-2.66,2.275-6.301,5.454-10.211,9.088c-3.909,3.638-7.344,7.039-9.805,9.528c-1.163,1.175-2.14,2.163-2.916,2.947
				c-0.692,0.693-1.09,1.064-1.121,1.035c-0.031-0.029,0.306-0.454,0.945-1.198c0.636-0.746,1.584-1.802,2.777-3.087
				c2.385-2.57,5.78-6.031,9.699-9.678c3.92-3.643,7.617-6.779,10.353-8.971c1.368-1.097,2.49-1.966,3.28-2.547
				C607.385,280.441,607.833,280.134,607.86,280.168z"/>
		</g>
		<g>
			<path fill="#FAFAFA" d="M610.607,303.034c-0.018,0.039-0.511-0.155-1.387-0.538c-0.877-0.38-2.13-0.966-3.665-1.719
				c-3.07-1.504-7.247-3.719-11.722-6.403c-4.474-2.689-8.393-5.335-11.163-7.337c-1.386-1.001-2.492-1.831-3.24-2.426
				c-0.75-0.593-1.152-0.937-1.127-0.971c0.025-0.034,0.476,0.244,1.269,0.776c0.896,0.605,2.017,1.362,3.349,2.262
				c2.829,1.906,6.772,4.485,11.232,7.166c4.461,2.676,8.59,4.944,11.603,6.544c1.42,0.753,2.616,1.386,3.571,1.892
				C610.167,302.728,610.625,302.995,610.607,303.034z"/>
		</g>
	</g>
	<g>
		<path fill="#375A64" d="M475.653,261.618c3.066-5.5,1.704-12.76-2.273-17.641c-3.977-4.881-10.117-7.61-16.323-8.672
			c-3.815-0.653-7.73-0.743-11.473-1.727c-3.743-0.984-7.448-3.066-9.167-6.534c-0.91,4.191-0.289,8.698,1.721,12.487
			c-2.167-0.448-4.247-1.317-6.089-2.543c0.017,7.712,1.938,15.576,6.448,21.832c4.51,6.256,11.806,10.705,19.518,10.791
			c7.712,0.085,15.52-4.695,18.049-11.981"/>
		<path fill="#FF4F5B" d="M432.051,233.958c-0.301,3.729,0.167,10.969,1.593,14.428c0.548,1.33,1.239,2.639,2.297,3.613
			c1.059,0.974,2.543,1.573,3.953,1.286c2.215-0.452,3.669-2.875,5.909-3.175c2.68-0.359,4.871,2.469,7.575,2.544
			c2.207,0.061,4.072-1.791,4.887-3.843c0.815-2.052,0.856-4.315,1.163-6.501c0.307-2.187,0.982-4.482,2.688-5.884
			c0,0-6.191-2.446-14.351-3.425c-8.16-0.979-11.424-8.323-11.424-8.323s-2.441,8.817,1.799,14.853L432.051,233.958z"/>
	</g>
	<path fill="#1A2E35" d="M473.413,278.497l185.375,135.552c5.239,3.831,12.585,2.731,16.472-2.467v0
		c3.955-5.288,2.819-12.79-2.523-16.671L486.651,259.725L473.413,278.497z"/>
	<path fill="#FFBF9D" d="M647.359,299.75l-19.021,11.965l3.081,8.083l-42.567,17.516l-11.652,0.534l-8.595-1.601
		c0,0-0.757,0.999,0.69,2.541c0.802,0.855,2.853,1.615,4.522,2.123l-6.422,5.816l8.342,10.57l28.541-6.9
		c15.797-2.684,53.427-10.226,53.568-21.213C657.972,319.276,647.359,299.75,647.359,299.75z"/>
	<path fill="#FFBF9D" d="M494.666,280.305c0.439-1.3,1.509-2.226,2.675-1.616l0,0c0.551,0.609,0.565,1.442,0.384,2.007
		l-3.726,12.132l0.005,0.01l3.529-8.575c0.439-1.3,1.617-2.083,2.429-1.378c0.448,0.389,0.466,1.403,0.285,1.969l-3.219,10.07
		l2.619-6.295c0.547-1.437,1.19-1.821,1.921-1.508c0.721,0.309,0.752,1.381,0.571,1.946l-2.217,7.436
		c0.476,1.427,2.119,5.923,0.54,8.454c-0.08,0.129,0.157,0.545,0.152,0.686l0.748,0.857l-4.838,4.574
		c-2.502-2.228-4.817-11.572-5.541-15.117c-0.624-3.056-0.067-5.017,0.269-6.06L494.666,280.305z"/>
	<polygon fill="#F5F5F5" points="486.651,259.725 476.693,251.839 463.671,270.862 473.413,278.497 	"/>
</g>
<g>
	<g>
		<g>
			<path fill="#375A64" d="M318.465,223.919l-4.817-14.138l0.481-8.005l6.212,6.099l9.346,26.314
				c0.64,1.802-0.353,3.774-2.181,4.333l0,0c-1.678,0.513-3.468-0.353-4.107-1.987L318.465,223.919z"/>
			<g>
				<path fill="#1A2E35" d="M326.742,235.063c-0.081,0.028-0.672-1.429-1.574-3.803c-0.941-2.544-2.129-5.754-3.443-9.305
					c-1.304-3.554-2.483-6.766-3.417-9.311c-0.412-1.075-0.768-2.007-1.073-2.802c-0.254-0.659-0.439-0.998-0.395-1.031
					c0.088-0.063,0.909,1.321,1.874,3.671c0.995,2.342,2.261,5.618,3.592,9.261c1.331,3.641,2.477,6.958,3.274,9.371
					C326.377,233.526,326.822,235.035,326.742,235.063z"/>
			</g>
			<polygon fill="#1A2E35" points="314.13,201.776 313.822,206.889 317.762,205.342 			"/>
			<g>
				
					<ellipse transform="matrix(0.9549 -0.2971 0.2971 0.9549 -47.7278 103.5495)" fill="#1A2E35" cx="316.839" cy="208.811" rx="3.353" ry="0.31"/>
			</g>
		</g>
		<path fill="#BF654E" d="M328.634,225.19l1.204-4.172c0.283-0.981-0.323-1.997-1.321-2.215l-4.5-0.98c0,0-0.746,1.003-0.296,1.835
			c0.45,0.831,3.517,1.601,3.517,1.601l-0.374,4.204L328.634,225.19z"/>
		<g>
			<g>
				<g>
					<g>
						<g>
							<path fill="#FFBF9D" d="M226.599,285.924L226.599,285.924c6.05,0.465,11.272-4.192,11.505-10.255
								c0.224-5.822,0.419-11.708,0.419-11.708s8.822-0.826,9.462-9.558c0.64-8.731,0.348-28.888,0.348-28.888l0,0
								c-9.85-4.963-21.615-4.207-30.748,1.977l-1.356,0.918l0.494,46.964C216.783,280.919,221.07,285.499,226.599,285.924z"/>
						</g>
					</g>
				</g>
			</g>
		</g>
		<polygon fill="#C78976" points="242.122,445.113 268.25,565.628 287.965,565.167 270.799,449.923 		"/>
		<polygon fill="#C78976" points="193.874,441.036 187.525,558.721 206.93,563.409 221.477,443.517 		"/>
		<g>
			<polygon fill="#1A2E35" points="273.604,450.182 262.943,359.59 200.116,358.433 192.766,442.724 			"/>
			<g>
				<g>
					
						<ellipse transform="matrix(0.993 -0.1177 0.1177 0.993 -43.7182 29.8567)" fill="#375A64" cx="230.872" cy="384.994" rx="22.868" ry="0.31"/>
				</g>
			</g>
		</g>
		<g>
			<g>
				<g>
					<g>
						<g>
							<path fill="#FF4F5B" d="M290.657,567.186l-0.084-2.204l-22.323,0.645l0.193,7.267l1.381,0.045
								c6.142,0.152,31.243,0.37,35.306-0.896C309.662,570.632,290.657,567.186,290.657,567.186z"/>
						</g>
					</g>
					<g opacity="0.6">
						<g>
							<path fill="#FFFFFF" d="M276.496,572.516c-0.37-1.718-1.452-3.294-2.973-4.329c-1.52-1.035-3.368-1.553-5.241-1.362
								l0.175,5.774L276.496,572.516z"/>
						</g>
					</g>
				</g>
				<g opacity="0.6">
					<g>
						<path fill="#FFFFFF" d="M299.952,569.176c0,0,6.673,1.597,5.879,2.633c-0.794,1.036-26.168,1.703-37.389,1.086l0.022-0.463
							l29.604-0.544C298.069,571.889,298.66,569.261,299.952,569.176z"/>
					</g>
				</g>
				<g>
					<g>
						<g>
							<path fill="#1A2E35" d="M268.115,572.429c0,0.009,0.132,0.018,0.383,0.028c0.33,0.01,0.691,0.021,1.099,0.033
								c1.099,0.015,2.45,0.034,4.044,0.055c3.415,0.024,8.134,0,13.343-0.133c5.211-0.134,9.925-0.351,13.333-0.55
								c1.59-0.103,2.938-0.191,4.035-0.262c0.406-0.033,0.767-0.062,1.096-0.089c0.25-0.023,0.381-0.039,0.381-0.048
								c-0.001-0.009-0.133-0.009-0.384-0.003c-0.33,0.013-0.691,0.026-1.099,0.042c-1.097,0.049-2.446,0.111-4.038,0.182
								c-3.41,0.154-8.122,0.342-13.33,0.476c-5.206,0.132-9.922,0.185-13.336,0.206c-1.594,0.009-2.945,0.017-4.043,0.024
								c-0.408,0.005-0.77,0.01-1.1,0.015C268.247,572.413,268.115,572.42,268.115,572.429z"/>
						</g>
					</g>
				</g>
				<g>
					<g>
						<g>
							<path fill="#1A2E35" d="M298.073,572.21c0.082,0.007,0.118-0.891,0.7-1.812c0.565-0.931,1.382-1.411,1.333-1.474
								c-0.018-0.062-0.959,0.353-1.567,1.349C297.918,571.262,298.006,572.227,298.073,572.21z"/>
						</g>
					</g>
				</g>
				<g>
					<g>
						<g>
							<path fill="#1A2E35" d="M291.421,569.289c0.064,0.035,0.367-0.328,0.677-0.811c0.31-0.483,0.509-0.904,0.445-0.939
								c-0.064-0.036-0.367,0.328-0.676,0.811C291.556,568.833,291.357,569.254,291.421,569.289z"/>
						</g>
					</g>
				</g>
				<g>
					<g>
						<g>
							<path fill="#1A2E35" d="M289.595,568.452c0.051,0.05,0.395-0.177,0.768-0.506c0.373-0.33,0.634-0.638,0.583-0.688
								c-0.051-0.05-0.395,0.177-0.769,0.506C289.804,568.094,289.544,568.402,289.595,568.452z"/>
						</g>
					</g>
				</g>
				<g>
					<g>
						<g>
							
								<ellipse transform="matrix(-0.9999 0.0158 -0.0158 -0.9999 588.0414 1128.3763)" fill="#1A2E35" cx="289.559" cy="566.513" rx="1.162" ry="0.125"/>
						</g>
					</g>
				</g>
				<g>
					<g>
						<g>
							<path fill="#1A2E35" d="M287.965,565.167c-0.023,0.063,0.55,0.285,1.305,0.316c0.755,0.035,1.348-0.137,1.331-0.201
								c-0.015-0.071-0.601-0.016-1.318-0.05C288.565,565.204,287.987,565.097,287.965,565.167z"/>
						</g>
					</g>
				</g>
				<g>
					<g>
						<g>
							<path fill="#1A2E35" d="M292.12,567.467c-0.001,0.028,0.549,0.076,1.428-0.046c0.438-0.061,0.956-0.171,1.511-0.352
								c0.276-0.1,0.565-0.176,0.86-0.356c0.139-0.092,0.292-0.219,0.341-0.422c0.053-0.201-0.068-0.421-0.233-0.525
								c-1.385-0.622-2.73,0.128-3.217,0.797c-0.269,0.342-0.387,0.672-0.439,0.898c-0.05,0.229-0.042,0.358-0.026,0.36
								c0.051,0.016,0.081-0.525,0.616-1.15c0.264-0.306,0.669-0.608,1.198-0.769c0.5-0.152,1.217-0.209,1.705,0.063
								c0.231,0.15,0.151,0.4-0.097,0.547c-0.231,0.147-0.532,0.241-0.793,0.34c-0.535,0.187-1.035,0.313-1.46,0.394
								C292.663,567.411,292.118,567.426,292.12,567.467z"/>
						</g>
					</g>
				</g>
				<g>
					<g>
						<g>
							<path fill="#1A2E35" d="M292.492,567.523c0.021,0.014,0.221-0.331,0.137-0.926c-0.044-0.292-0.17-0.637-0.419-0.96
								c-0.261-0.288-0.598-0.686-1.209-0.646c-0.33,0.048-0.481,0.403-0.422,0.625c0.033,0.232,0.152,0.428,0.261,0.587
								c0.222,0.326,0.471,0.588,0.699,0.786c0.46,0.395,0.818,0.541,0.833,0.516c0.024-0.033-0.292-0.231-0.698-0.641
								c-0.202-0.205-0.423-0.466-0.622-0.781c-0.205-0.276-0.354-0.776,0.002-0.846c0.357-0.041,0.732,0.28,0.958,0.539
								c0.233,0.281,0.367,0.587,0.43,0.852C292.567,567.166,292.444,567.515,292.492,567.523z"/>
						</g>
					</g>
				</g>
				<g>
					<g>
						<g>
							<path fill="#1A2E35" d="M268.397,566.764c0.006,0.047,0.635-0.073,1.643,0.011c0.998,0.077,2.394,0.42,3.624,1.278
								c1.23,0.861,1.972,2.012,2.328,2.882c0.366,0.877,0.417,1.471,0.467,1.464c0.016-0.001,0.02-0.15-0.012-0.417
								c-0.031-0.267-0.112-0.651-0.276-1.108c-0.319-0.909-1.063-2.124-2.345-3.022c-1.283-0.895-2.745-1.222-3.773-1.255
								c-0.518-0.02-0.937,0.015-1.221,0.061C268.546,566.704,268.393,566.748,268.397,566.764z"/>
						</g>
					</g>
				</g>
				<g>
					<g>
						<g>
							<path fill="#1A2E35" d="M279.231,570.428c-0.008,0.065,1.447,0.248,3.253,0.214c1.807-0.029,3.253-0.263,3.243-0.328
								c-0.009-0.072-1.458,0.048-3.248,0.077C280.69,570.426,279.237,570.356,279.231,570.428z"/>
						</g>
					</g>
				</g>
				<g>
					<g>
						<g>
							<path fill="#1A2E35" d="M274.875,570.537c-0.053,0.052,0.127,0.283,0.285,0.589c0.162,0.304,0.247,0.578,0.324,0.571
								c0.072-0.002,0.105-0.33-0.081-0.681C275.219,570.663,274.922,570.485,274.875,570.537z"/>
						</g>
					</g>
				</g>
				<g>
					<g>
						<g>
							<path fill="#1A2E35" d="M273.176,568.681c-0.051,0.05,0.099,0.261,0.335,0.472c0.236,0.211,0.47,0.341,0.521,0.291
								c0.051-0.05-0.098-0.261-0.335-0.472C273.461,568.761,273.227,568.631,273.176,568.681z"/>
						</g>
					</g>
				</g>
				<g>
					<g>
						<g>
							<path fill="#1A2E35" d="M270.801,567.875c0.018,0.07,0.313,0.059,0.643,0.158c0.332,0.091,0.57,0.254,0.627,0.205
								c0.059-0.039-0.137-0.329-0.548-0.445C271.113,567.675,270.776,567.811,270.801,567.875z"/>
						</g>
					</g>
				</g>
				<g>
					<g>
						<g>
							<path fill="#1A2E35" d="M269.116,567.509c-0.025,0.065,0.106,0.168,0.292,0.229c0.186,0.062,0.358,0.059,0.383-0.006
								c0.025-0.065-0.106-0.168-0.292-0.229C269.312,567.441,269.141,567.444,269.116,567.509z"/>
						</g>
					</g>
				</g>
			</g>
		</g>
		<g>
			<polygon fill="#FF4F5B" points="186.948,557.714 183.644,572.251 205.974,572.251 206.93,562.787 			"/>
			<g>
				<path fill="#1A2E35" d="M206.43,570.139c0,0.083-1.243,0.167-3.253,0.186c-2.011,0.022-4.787-0.032-7.848-0.144
					c-2.951-0.125-5.621-0.239-7.835-0.333c-2.004-0.096-3.245-0.173-3.245-0.261c0-0.083,1.243-0.161,3.253-0.177
					c2.01-0.017,4.787,0.039,7.849,0.152c2.95,0.123,5.619,0.233,7.834,0.325C205.189,569.98,206.43,570.051,206.43,570.139z"/>
			</g>
			<g>
				
					<ellipse transform="matrix(0.0672 -0.9977 0.9977 0.0672 -380.5177 723.4573)" fill="#1A2E35" cx="196.654" cy="565.234" rx="4.697" ry="0.31"/>
			</g>
			<polyline opacity="0.6" fill="#FFFFFF" points="183.644,572.251 205.974,572.251 206.187,570.139 184.046,569.587 
				183.644,571.998 			"/>
		</g>
		<path fill="#C78976" d="M329.157,220.667l-10.737,3.986c-0.117-3.261-2.334-6.659-2.334-5.025s-0.77,10.05-0.77,10.05
			l-16.986,29.55c-2.363,4.707-6.618,7.449-9.675,7.936l-13.931,2.983l3.915,18.416l19.414-4.794
			c5.037-1.244,9.186-4.802,11.184-9.59l16.152-38.717c0,0,1.903-4.397,2.72-7.665C328.923,224.529,329.157,220.667,329.157,220.667
			z"/>
		<g>
			<g>
				<g>
					<g>
						<path fill="#375A64" d="M178.557,311.904c0,0,16.172-33.002,17.417-34.024c7.726-6.345,17.592-5.714,17.592-5.714l26.989,0.23
							c0,0,21.247-2.661,33.634-4.753l5.4,25.399l-23.763,5.733l-2.245,28.786l5.266,21.962c1.177,2.611,2.164,5.304,2.953,8.057
							l0.733,2.557l-62.516,0.65c-0.209-7.306,8.145-25.405,8.145-25.405l-4.561-28.394l-2.226,10.853L178.557,311.904z"/>
					</g>
				</g>
			</g>
			<g>
				<path fill="#FAFAFA" d="M254.838,305.816c-0.002,0.096-1.184-0.483-3.287,0.002c-1.038,0.236-2.251,0.768-3.518,1.601
					c-1.274,0.826-2.553,2.014-4.047,3.252c-1.483,1.217-3.283,2.559-5.594,3.039c-2.282,0.515-4.848,0.202-7.267-0.723
					c-2.43-0.917-4.755-2.413-6.854-4.267c-2.117-1.835-4.086-3.949-6.22-5.96c-2.128-2.016-4.38-3.797-6.854-4.997
					c-2.458-1.221-5.039-1.966-7.543-2.276c-5.032-0.667-9.64,0.448-13.06,2.131c-3.454,1.683-5.793,3.82-7.25,5.384
					c-0.723,0.795-1.247,1.447-1.591,1.899c-0.341,0.454-0.529,0.687-0.546,0.676c-0.018-0.012,0.135-0.268,0.445-0.748
					c0.313-0.477,0.81-1.159,1.513-1.987c1.417-1.629,3.743-3.851,7.236-5.616c3.455-1.765,8.168-2.956,13.324-2.304
					c2.566,0.302,5.215,1.052,7.742,2.298c2.546,1.225,4.864,3.056,7.01,5.09c2.155,2.032,4.113,4.14,6.194,5.954
					c2.058,1.828,4.31,3.287,6.659,4.191c2.337,0.909,4.785,1.222,6.954,0.754c2.19-0.43,3.936-1.69,5.427-2.878
					c1.497-1.203,2.81-2.382,4.135-3.203c1.314-0.824,2.575-1.338,3.654-1.545c1.077-0.227,1.947-0.143,2.506-0.032
					C254.571,305.664,254.838,305.816,254.838,305.816z"/>
			</g>
			<g>
				<path fill="#FAFAFA" d="M253.67,332.019c0.004,0.068-0.717,0.072-1.964,0.36c-1.245,0.292-2.979,0.984-4.923,2.201
					c-1.963,1.189-4.101,2.918-6.685,4.59c-2.609,1.632-5.798,3.013-9.333,3.544c-3.527,0.554-6.971,0.369-9.984-0.28
					c-3.021-0.644-5.604-1.754-7.613-2.925c-1.032-0.545-1.856-1.212-2.62-1.728c-0.707-0.595-1.32-1.103-1.793-1.547
					c-0.9-0.938-1.379-1.468-1.348-1.497c0.121-0.145,1.916,2.207,5.975,4.39c2.001,1.102,4.55,2.147,7.515,2.748
					c2.957,0.605,6.324,0.768,9.768,0.228c3.454-0.521,6.555-1.845,9.128-3.416c2.561-1.619,4.742-3.324,6.763-4.483
					c2.002-1.188,3.812-1.838,5.098-2.062c0.646-0.099,1.148-0.159,1.492-0.148C253.491,331.991,253.67,331.998,253.67,332.019z"/>
			</g>
			<g>
				<path fill="#FAFAFA" d="M262.665,276.094c-0.021-0.063,0.802-0.425,2.231-0.63c1.422-0.21,3.461-0.176,5.586,0.449
					c2.123,0.634,3.851,1.716,4.929,2.667c1.087,0.951,1.58,1.703,1.528,1.744c-0.077,0.069-0.681-0.57-1.801-1.402
					c-1.115-0.835-2.798-1.808-4.832-2.416c-2.036-0.598-3.977-0.7-5.367-0.607C263.547,275.987,262.692,276.194,262.665,276.094z"
					/>
			</g>
			<g>
				<path fill="#FAFAFA" d="M223.731,358.433c-0.017-0.144,2.011-0.078,4.988-1.215c1.488-0.542,3.193-1.367,5.022-2.409
					c1.838-1.079,3.836-2.252,5.934-3.484c2.131-1.213,4.278-2.201,6.327-2.837c2.055-0.614,3.982-0.865,5.596-0.912
					c1.616-0.046,2.92,0.087,3.808,0.234c0.888,0.149,1.366,0.294,1.359,0.33c-0.014,0.118-1.973-0.321-5.145-0.126
					c-1.58,0.101-3.456,0.391-5.449,1.019c-1.985,0.65-4.079,1.629-6.191,2.832c-2.116,1.196-4.094,2.425-5.96,3.443
					c-1.861,1.024-3.618,1.824-5.156,2.324c-0.761,0.273-1.481,0.419-2.103,0.572c-0.633,0.107-1.181,0.187-1.628,0.235
					C224.228,358.476,223.732,358.476,223.731,358.433z"/>
			</g>
		</g>
		<path fill="#C78976" d="M329.157,220.667v-2.677c0-0.702-0.446-1.326-1.109-1.553l-5.026-1.725c0,0-0.746,1.003-0.296,1.835
			c0.45,0.831,3.517,1.601,3.517,1.601l-0.374,4.204L329.157,220.667z"/>
		<path fill="#C78976" d="M181.254,312.605c0,0-9.494,17.394-2.696,24.006c6.418,6.242,29.091-4.432,29.091-4.432l-2.262-14.08
			l-11.355,4.058l2.615-5.548L181.254,312.605z"/>
		<g>
			<path fill="#1A2E35" d="M244.73,217.33c15.576,2.9,7.702,22.966,11.075,29.555c1.246,2.435,3.498,4.379,5.243,6.582
				c1.746,2.202,3.013,4.99,1.949,7.487c-0.921,2.161-3.5,3.953-3.111,6.227c0.207,1.208,1.231,2.177,1.98,3.219
				c1.838,2.556,2.066,5.808,1.049,8.675c-1.017,2.867-3.185,5.37-5.788,7.391c-7.605,5.901-19.302,7.673-28.841,4.368
				c-2.82-0.977-5.697-2.388-8.702-1.961c-1.853,0.263-3.461,1.2-5.2,1.804c-6.731,2.338-15.081-1.025-18.185-6.608
				c-3.104-5.583-1.39-12.568,3.231-17.335c3.311-3.416,8.23-6.359,8.559-10.774c0.324-4.344-4.112-8.694-2.087-12.692
				c1.309-2.585,4.926-3.912,6.22-6.502c1.349-2.698-0.245-5.751-0.327-8.681c-0.112-3.962,2.571-7.586,5.589-10.611
				c3.797-3.805,8.671-7.261,14.503-7.861C237.72,209.011,244.352,212.354,244.73,217.33"/>
			<g>
				<path fill="#375A64" d="M236.447,292.927c-0.013-0.084,1.301,0.062,3.44-0.707c1.055-0.393,2.298-1.055,3.465-2.147
					c1.166-1.081,2.205-2.648,2.736-4.582c0.548-1.928,0.522-4.202-0.337-6.417c-0.394-1.119-0.911-2.245-1.385-3.445
					c-0.469-1.195-0.912-2.491-0.968-3.903c-0.074-1.409,0.391-2.886,1.272-4.061c0.873-1.184,2.019-2.129,3.174-3.039
					c1.162-0.901,2.328-1.814,3.254-2.965c0.932-1.126,1.554-2.554,1.375-4.025c-0.176-1.467-1.026-2.76-1.964-3.915
					c-0.944-1.165-1.985-2.258-2.844-3.493c-0.865-1.221-1.471-2.678-1.544-4.151c-0.099-1.471,0.203-2.878,0.572-4.189
					c0.793-2.619,1.821-4.958,2.359-7.286c0.583-2.308,0.825-4.534,0.64-6.541c-0.325-4.06-2.522-6.884-4.309-8.184
					c-1.846-1.332-3.201-1.395-3.163-1.488c0.002-0.011,0.081-0.003,0.234,0.021c0.151,0.032,0.385,0.05,0.674,0.14
					c0.587,0.149,1.436,0.479,2.395,1.131c1.88,1.274,4.209,4.144,4.605,8.338c0.219,2.065-0.006,4.352-0.577,6.704
					c-0.525,2.369-1.553,4.766-2.309,7.321c-0.353,1.281-0.63,2.63-0.531,3.993c0.079,1.366,0.624,2.672,1.453,3.845
					c0.825,1.18,1.855,2.26,2.825,3.452c0.956,1.18,1.897,2.564,2.1,4.235c0.206,1.671-0.52,3.293-1.511,4.479
					c-0.985,1.22-2.203,2.163-3.359,3.056c-1.151,0.899-2.257,1.813-3.072,2.911c-0.82,1.091-1.235,2.396-1.179,3.693
					c0.13,2.622,1.514,4.904,2.267,7.198c0.868,2.29,0.876,4.717,0.274,6.705c-0.58,2.008-1.691,3.622-2.922,4.717
					c-1.231,1.106-2.527,1.752-3.619,2.119c-1.097,0.371-1.997,0.471-2.599,0.505c-0.302,0.019-0.533,0.012-0.688,0.002
					C236.525,292.947,236.447,292.938,236.447,292.927z"/>
			</g>
			<g>
				<path fill="#375A64" d="M212.655,234.583c-0.037,0.001-0.111-0.641-0.149-1.808c-0.03-1.165-0.059-2.864,0.215-4.948
					c0.273-2.071,0.902-4.576,2.411-6.957c1.503-2.375,3.844-4.51,6.677-6.048c5.711-3.078,12.129-3.01,15.926-1.103
					c1.921,0.924,3.15,2.257,3.681,3.315c0.28,0.524,0.417,0.969,0.481,1.271c0.062,0.305,0.084,0.464,0.063,0.469
					c-0.065,0.019-0.168-0.636-0.754-1.62c-0.575-0.98-1.787-2.198-3.658-3.039c-3.687-1.734-9.913-1.733-15.445,1.251
					c-2.746,1.49-5.024,3.55-6.491,5.812c-1.477,2.272-2.134,4.685-2.458,6.713c-0.325,2.039-0.363,3.725-0.407,4.884
					C212.711,233.936,212.704,234.581,212.655,234.583z"/>
			</g>
			<g>
				<path fill="#375A64" d="M239.003,221.718c-0.002,0.104-1.114-0.436-3.056,0.066c-1.872,0.481-4.526,2.29-5.724,5.657
					c-0.606,1.665-0.873,3.614-0.942,5.711c-0.083,2.1,0.056,4.359-0.06,6.759c-0.123,2.378-0.477,4.976-1.804,7.313
					c-1.288,2.373-3.786,3.876-4.76,6.337c-0.469,1.218-0.412,2.56-0.124,3.828c0.282,1.276,0.745,2.51,1.12,3.761
					c0.373,1.247,0.671,2.545,0.604,3.846c-0.045,1.304-0.487,2.524-1.036,3.601c-1.13,2.164-2.666,3.863-3.896,5.562
					c-1.24,1.686-2.221,3.408-2.49,5.15c-0.306,1.731,0.065,3.349,0.582,4.649c0.51,1.317,1.16,2.365,1.691,3.212
					c0.542,0.843,0.995,1.479,1.295,1.915c0.303,0.434,0.456,0.668,0.439,0.681c-0.017,0.013-0.203-0.195-0.538-0.606
					c-0.333-0.413-0.819-1.027-1.396-1.857c-0.566-0.834-1.256-1.875-1.811-3.216c-0.561-1.32-0.988-3.008-0.694-4.847
					c0.258-1.851,1.267-3.66,2.506-5.382c1.231-1.732,2.74-3.443,3.803-5.519c0.518-1.034,0.921-2.171,0.955-3.371
					c0.057-1.195-0.223-2.421-0.594-3.643c-0.371-1.227-0.842-2.466-1.141-3.804c-0.304-1.321-0.38-2.814,0.147-4.181
					c0.524-1.365,1.49-2.42,2.391-3.4c0.912-0.982,1.815-1.915,2.421-3.018c1.259-2.195,1.626-4.702,1.761-7.041
					c0.13-2.354,0.011-4.62,0.117-6.749c0.092-2.125,0.39-4.127,1.045-5.842c1.309-3.497,4.112-5.31,6.076-5.739
					c1.002-0.228,1.813-0.177,2.336-0.07c0.265,0.041,0.456,0.123,0.587,0.158C238.942,221.681,239.006,221.708,239.003,221.718z"/>
			</g>
		</g>
	</g>
	<polygon fill="#BF654E" points="193.778,442.818 193.655,445.113 220.367,452.669 221.254,445.352 	"/>
	<polygon fill="#BF654E" points="242.692,447.743 243.466,451.317 271.711,456.044 270.799,449.923 	"/>
</g>
</svg>
